<svg xmlns="http://www.w3.org/2000/svg" xmlns:xlink="http://www.w3.org/1999/xlink" width="600" height="400" viewBox="0 0 2400 1600">
<defs>
  <clipPath id="clip680">
    <rect x="0" y="0" width="2400" height="1600"></rect>
  </clipPath>
</defs>
<path clip-path="url(#clip680)" d="M0 1600 L2400 1600 L2400 0 L0 0  Z" fill="#ffffff" fill-rule="evenodd" fill-opacity="1"></path>
<defs>
  <clipPath id="clip681">
    <rect x="480" y="0" width="1681" height="1600"></rect>
  </clipPath>
</defs>
<path clip-path="url(#clip680)" d="M222.69 1410.9 L2352.76 1410.9 L2352.76 123.472 L222.69 123.472  Z" fill="#ffffff" fill-rule="evenodd" fill-opacity="1"></path>
<defs>
  <clipPath id="clip682">
    <rect x="222" y="123" width="2131" height="1288"></rect>
  </clipPath>
</defs>
<polyline clip-path="url(#clip682)" style="stroke:#000000; stroke-linecap:round; stroke-linejoin:round; stroke-width:2; stroke-opacity:0.1; fill:none" points="545.866,1410.9 545.866,123.472 "></polyline>
<polyline clip-path="url(#clip682)" style="stroke:#000000; stroke-linecap:round; stroke-linejoin:round; stroke-width:2; stroke-opacity:0.1; fill:none" points="1419.17,1410.9 1419.17,123.472 "></polyline>
<polyline clip-path="url(#clip682)" style="stroke:#000000; stroke-linecap:round; stroke-linejoin:round; stroke-width:2; stroke-opacity:0.1; fill:none" points="2292.47,1410.9 2292.47,123.472 "></polyline>
<polyline clip-path="url(#clip680)" style="stroke:#000000; stroke-linecap:round; stroke-linejoin:round; stroke-width:4; stroke-opacity:1; fill:none" points="222.69,1410.9 2352.76,1410.9 "></polyline>
<polyline clip-path="url(#clip680)" style="stroke:#000000; stroke-linecap:round; stroke-linejoin:round; stroke-width:4; stroke-opacity:1; fill:none" points="545.866,1410.9 545.866,1392 "></polyline>
<polyline clip-path="url(#clip680)" style="stroke:#000000; stroke-linecap:round; stroke-linejoin:round; stroke-width:4; stroke-opacity:1; fill:none" points="1419.17,1410.9 1419.17,1392 "></polyline>
<polyline clip-path="url(#clip680)" style="stroke:#000000; stroke-linecap:round; stroke-linejoin:round; stroke-width:4; stroke-opacity:1; fill:none" points="2292.47,1410.9 2292.47,1392 "></polyline>
<path clip-path="url(#clip680)" d="M512.193 1485.02 L519.832 1485.02 L519.832 1458.66 L511.522 1460.32 L511.522 1456.06 L519.786 1454.4 L524.462 1454.4 L524.462 1485.02 L532.1 1485.02 L532.1 1488.96 L512.193 1488.96 L512.193 1485.02 Z" fill="#000000" fill-rule="nonzero" fill-opacity="1"></path><path clip-path="url(#clip680)" d="M551.545 1457.48 Q547.934 1457.48 546.105 1461.04 Q544.299 1464.58 544.299 1471.71 Q544.299 1478.82 546.105 1482.38 Q547.934 1485.92 551.545 1485.92 Q555.179 1485.92 556.985 1482.38 Q558.813 1478.82 558.813 1471.71 Q558.813 1464.58 556.985 1461.04 Q555.179 1457.48 551.545 1457.48 M551.545 1453.77 Q557.355 1453.77 560.41 1458.38 Q563.489 1462.96 563.489 1471.71 Q563.489 1480.44 560.41 1485.04 Q557.355 1489.63 551.545 1489.63 Q545.735 1489.63 542.656 1485.04 Q539.6 1480.44 539.6 1471.71 Q539.6 1462.96 542.656 1458.38 Q545.735 1453.77 551.545 1453.77 Z" fill="#000000" fill-rule="nonzero" fill-opacity="1"></path><path clip-path="url(#clip680)" d="M564.035 1458.35 L570.241 1458.35 L570.241 1436.93 L563.489 1438.28 L563.489 1434.82 L570.204 1433.47 L574.003 1433.47 L574.003 1458.35 L580.209 1458.35 L580.209 1461.55 L564.035 1461.55 L564.035 1458.35 Z" fill="#000000" fill-rule="nonzero" fill-opacity="1"></path><path clip-path="url(#clip680)" d="M1384.94 1485.02 L1392.58 1485.02 L1392.58 1458.66 L1384.27 1460.32 L1384.27 1456.06 L1392.53 1454.4 L1397.21 1454.4 L1397.21 1485.02 L1404.85 1485.02 L1404.85 1488.96 L1384.94 1488.96 L1384.94 1485.02 Z" fill="#000000" fill-rule="nonzero" fill-opacity="1"></path><path clip-path="url(#clip680)" d="M1424.29 1457.48 Q1420.68 1457.48 1418.85 1461.04 Q1417.05 1464.58 1417.05 1471.71 Q1417.05 1478.82 1418.85 1482.38 Q1420.68 1485.92 1424.29 1485.92 Q1427.93 1485.92 1429.73 1482.38 Q1431.56 1478.82 1431.56 1471.71 Q1431.56 1464.58 1429.73 1461.04 Q1427.93 1457.48 1424.29 1457.48 M1424.29 1453.77 Q1430.1 1453.77 1433.16 1458.38 Q1436.24 1462.96 1436.24 1471.71 Q1436.24 1480.44 1433.16 1485.04 Q1430.1 1489.63 1424.29 1489.63 Q1418.48 1489.63 1415.4 1485.04 Q1412.35 1480.44 1412.35 1471.71 Q1412.35 1462.96 1415.4 1458.38 Q1418.48 1453.77 1424.29 1453.77 Z" fill="#000000" fill-rule="nonzero" fill-opacity="1"></path><path clip-path="url(#clip680)" d="M1440.81 1458.35 L1454.07 1458.35 L1454.07 1461.55 L1436.24 1461.55 L1436.24 1458.35 Q1438.4 1456.11 1442.12 1452.35 Q1445.87 1448.57 1446.83 1447.48 Q1448.65 1445.43 1449.36 1444.02 Q1450.1 1442.59 1450.1 1441.22 Q1450.1 1438.98 1448.52 1437.57 Q1446.96 1436.16 1444.44 1436.16 Q1442.65 1436.16 1440.66 1436.78 Q1438.68 1437.4 1436.43 1438.66 L1436.43 1434.82 Q1438.72 1433.9 1440.71 1433.43 Q1442.71 1432.96 1444.36 1432.96 Q1448.73 1432.96 1451.32 1435.14 Q1453.92 1437.32 1453.92 1440.97 Q1453.92 1442.7 1453.26 1444.26 Q1452.62 1445.8 1450.91 1447.91 Q1450.44 1448.46 1447.92 1451.07 Q1445.4 1453.67 1440.81 1458.35 Z" fill="#000000" fill-rule="nonzero" fill-opacity="1"></path><path clip-path="url(#clip680)" d="M2257.91 1485.02 L2265.55 1485.02 L2265.55 1458.66 L2257.24 1460.32 L2257.24 1456.06 L2265.51 1454.4 L2270.18 1454.4 L2270.18 1485.02 L2277.82 1485.02 L2277.82 1488.96 L2257.91 1488.96 L2257.91 1485.02 Z" fill="#000000" fill-rule="nonzero" fill-opacity="1"></path><path clip-path="url(#clip680)" d="M2297.27 1457.48 Q2293.66 1457.48 2291.83 1461.04 Q2290.02 1464.58 2290.02 1471.71 Q2290.02 1478.82 2291.83 1482.38 Q2293.66 1485.92 2297.27 1485.92 Q2300.9 1485.92 2302.71 1482.38 Q2304.53 1478.82 2304.53 1471.71 Q2304.53 1464.58 2302.71 1461.04 Q2300.9 1457.48 2297.27 1457.48 M2297.27 1453.77 Q2303.08 1453.77 2306.13 1458.38 Q2309.21 1462.96 2309.21 1471.71 Q2309.21 1480.44 2306.13 1485.04 Q2303.08 1489.63 2297.27 1489.63 Q2291.46 1489.63 2288.38 1485.04 Q2285.32 1480.44 2285.32 1471.71 Q2285.32 1462.96 2288.38 1458.38 Q2291.46 1453.77 2297.27 1453.77 Z" fill="#000000" fill-rule="nonzero" fill-opacity="1"></path><path clip-path="url(#clip680)" d="M2321.91 1446.41 Q2324.63 1446.99 2326.16 1448.83 Q2327.7 1450.68 2327.7 1453.38 Q2327.7 1457.54 2324.84 1459.82 Q2321.98 1462.09 2316.71 1462.09 Q2314.95 1462.09 2313.07 1461.73 Q2311.2 1461.4 2309.21 1460.7 L2309.21 1457.03 Q2310.79 1457.95 2312.67 1458.42 Q2314.55 1458.89 2316.6 1458.89 Q2320.18 1458.89 2322.04 1457.48 Q2323.92 1456.07 2323.92 1453.38 Q2323.92 1450.9 2322.17 1449.51 Q2320.44 1448.1 2317.34 1448.1 L2314.06 1448.1 L2314.06 1444.98 L2317.49 1444.98 Q2320.29 1444.98 2321.77 1443.87 Q2323.26 1442.74 2323.26 1440.63 Q2323.26 1438.47 2321.72 1437.32 Q2320.19 1436.16 2317.34 1436.16 Q2315.77 1436.16 2313.99 1436.49 Q2312.2 1436.83 2310.06 1437.55 L2310.06 1434.16 Q2312.22 1433.56 2314.1 1433.26 Q2316 1432.96 2317.67 1432.96 Q2322 1432.96 2324.52 1434.93 Q2327.04 1436.89 2327.04 1440.24 Q2327.04 1442.57 2325.71 1444.19 Q2324.37 1445.79 2321.91 1446.41 Z" fill="#000000" fill-rule="nonzero" fill-opacity="1"></path><path clip-path="url(#clip680)" d="M1194.5 1545.51 L1185.24 1545.51 L1182.56 1556.14 L1191.89 1556.14 L1194.5 1545.51 M1189.72 1527.4 L1186.41 1540.61 L1195.71 1540.61 L1199.05 1527.4 L1204.14 1527.4 L1200.86 1540.61 L1210.79 1540.61 L1210.79 1545.51 L1199.62 1545.51 L1197.01 1556.14 L1207.13 1556.14 L1207.13 1561.01 L1195.77 1561.01 L1192.46 1574.19 L1187.37 1574.19 L1190.65 1561.01 L1181.32 1561.01 L1178.04 1574.19 L1172.92 1574.19 L1176.23 1561.01 L1166.2 1561.01 L1166.2 1556.14 L1177.41 1556.14 L1180.08 1545.51 L1169.83 1545.51 L1169.83 1540.61 L1181.32 1540.61 L1184.57 1527.4 L1189.72 1527.4 Z" fill="#000000" fill-rule="nonzero" fill-opacity="1"></path><path clip-path="url(#clip680)" d="M1251.57 1552.67 L1251.57 1574.19 L1245.71 1574.19 L1245.71 1552.86 Q1245.71 1547.8 1243.74 1545.29 Q1241.76 1542.77 1237.82 1542.77 Q1233.07 1542.77 1230.34 1545.79 Q1227.6 1548.82 1227.6 1554.04 L1227.6 1574.19 L1221.71 1574.19 L1221.71 1538.54 L1227.6 1538.54 L1227.6 1544.08 Q1229.7 1540.86 1232.53 1539.27 Q1235.4 1537.68 1239.12 1537.68 Q1245.26 1537.68 1248.41 1541.5 Q1251.57 1545.29 1251.57 1552.67 Z" fill="#000000" fill-rule="nonzero" fill-opacity="1"></path><path clip-path="url(#clip680)" d="M1277.06 1542.64 Q1272.35 1542.64 1269.61 1546.34 Q1266.88 1550 1266.88 1556.39 Q1266.88 1562.79 1269.58 1566.48 Q1272.32 1570.14 1277.06 1570.14 Q1281.74 1570.14 1284.48 1566.45 Q1287.21 1562.76 1287.21 1556.39 Q1287.21 1550.06 1284.48 1546.37 Q1281.74 1542.64 1277.06 1542.64 M1277.06 1537.68 Q1284.7 1537.68 1289.06 1542.64 Q1293.42 1547.61 1293.42 1556.39 Q1293.42 1565.15 1289.06 1570.14 Q1284.7 1575.11 1277.06 1575.11 Q1269.39 1575.11 1265.03 1570.14 Q1260.7 1565.15 1260.7 1556.39 Q1260.7 1547.61 1265.03 1542.64 Q1269.39 1537.68 1277.06 1537.68 Z" fill="#000000" fill-rule="nonzero" fill-opacity="1"></path><path clip-path="url(#clip680)" d="M1326.59 1543.95 L1326.59 1524.66 L1332.44 1524.66 L1332.44 1574.19 L1326.59 1574.19 L1326.59 1568.84 Q1324.74 1572.02 1321.91 1573.58 Q1319.11 1575.11 1315.16 1575.11 Q1308.7 1575.11 1304.62 1569.95 Q1300.58 1564.8 1300.58 1556.39 Q1300.58 1547.99 1304.62 1542.83 Q1308.7 1537.68 1315.16 1537.68 Q1319.11 1537.68 1321.91 1539.24 Q1324.74 1540.77 1326.59 1543.95 M1306.63 1556.39 Q1306.63 1562.85 1309.27 1566.55 Q1311.94 1570.21 1316.59 1570.21 Q1321.24 1570.21 1323.91 1566.55 Q1326.59 1562.85 1326.59 1556.39 Q1326.59 1549.93 1323.91 1546.27 Q1321.24 1542.58 1316.59 1542.58 Q1311.94 1542.58 1309.27 1546.27 Q1306.63 1549.93 1306.63 1556.39 Z" fill="#000000" fill-rule="nonzero" fill-opacity="1"></path><path clip-path="url(#clip680)" d="M1375 1554.9 L1375 1557.76 L1348.07 1557.76 Q1348.45 1563.81 1351.7 1566.99 Q1354.98 1570.14 1360.8 1570.14 Q1364.18 1570.14 1367.33 1569.32 Q1370.51 1568.49 1373.63 1566.83 L1373.63 1572.37 Q1370.48 1573.71 1367.17 1574.41 Q1363.86 1575.11 1360.45 1575.11 Q1351.92 1575.11 1346.92 1570.14 Q1341.96 1565.18 1341.96 1556.71 Q1341.96 1547.96 1346.67 1542.83 Q1351.41 1537.68 1359.43 1537.68 Q1366.63 1537.68 1370.8 1542.33 Q1375 1546.94 1375 1554.9 M1369.14 1553.18 Q1369.08 1548.37 1366.44 1545.51 Q1363.83 1542.64 1359.5 1542.64 Q1354.59 1542.64 1351.63 1545.41 Q1348.71 1548.18 1348.26 1553.21 L1369.14 1553.18 Z" fill="#000000" fill-rule="nonzero" fill-opacity="1"></path><path clip-path="url(#clip680)" d="M1407.33 1539.59 L1407.33 1545.13 Q1404.85 1543.85 1402.18 1543.22 Q1399.5 1542.58 1396.64 1542.58 Q1392.28 1542.58 1390.08 1543.92 Q1387.92 1545.25 1387.92 1547.93 Q1387.92 1549.96 1389.48 1551.14 Q1391.04 1552.29 1395.75 1553.34 L1397.75 1553.78 Q1403.99 1555.12 1406.6 1557.57 Q1409.24 1559.99 1409.24 1564.35 Q1409.24 1569.32 1405.3 1572.21 Q1401.38 1575.11 1394.51 1575.11 Q1391.64 1575.11 1388.52 1574.54 Q1385.44 1573.99 1382 1572.88 L1382 1566.83 Q1385.25 1568.52 1388.4 1569.38 Q1391.55 1570.21 1394.64 1570.21 Q1398.77 1570.21 1401 1568.81 Q1403.23 1567.37 1403.23 1564.8 Q1403.23 1562.41 1401.61 1561.14 Q1400.01 1559.86 1394.57 1558.68 L1392.53 1558.21 Q1387.09 1557.06 1384.67 1554.71 Q1382.25 1552.32 1382.25 1548.18 Q1382.25 1543.15 1385.82 1540.42 Q1389.38 1537.68 1395.94 1537.68 Q1399.19 1537.68 1402.05 1538.16 Q1404.92 1538.63 1407.33 1539.59 Z" fill="#000000" fill-rule="nonzero" fill-opacity="1"></path><polyline clip-path="url(#clip682)" style="stroke:#000000; stroke-linecap:round; stroke-linejoin:round; stroke-width:2; stroke-opacity:0.1; fill:none" points="222.69,1242.7 2352.76,1242.7 "></polyline>
<polyline clip-path="url(#clip682)" style="stroke:#000000; stroke-linecap:round; stroke-linejoin:round; stroke-width:2; stroke-opacity:0.1; fill:none" points="222.69,933.182 2352.76,933.182 "></polyline>
<polyline clip-path="url(#clip682)" style="stroke:#000000; stroke-linecap:round; stroke-linejoin:round; stroke-width:2; stroke-opacity:0.1; fill:none" points="222.69,623.668 2352.76,623.668 "></polyline>
<polyline clip-path="url(#clip682)" style="stroke:#000000; stroke-linecap:round; stroke-linejoin:round; stroke-width:2; stroke-opacity:0.1; fill:none" points="222.69,314.153 2352.76,314.153 "></polyline>
<polyline clip-path="url(#clip680)" style="stroke:#000000; stroke-linecap:round; stroke-linejoin:round; stroke-width:4; stroke-opacity:1; fill:none" points="222.69,1410.9 222.69,123.472 "></polyline>
<polyline clip-path="url(#clip680)" style="stroke:#000000; stroke-linecap:round; stroke-linejoin:round; stroke-width:4; stroke-opacity:1; fill:none" points="222.69,1242.7 241.588,1242.7 "></polyline>
<polyline clip-path="url(#clip680)" style="stroke:#000000; stroke-linecap:round; stroke-linejoin:round; stroke-width:4; stroke-opacity:1; fill:none" points="222.69,933.182 241.588,933.182 "></polyline>
<polyline clip-path="url(#clip680)" style="stroke:#000000; stroke-linecap:round; stroke-linejoin:round; stroke-width:4; stroke-opacity:1; fill:none" points="222.69,623.668 241.588,623.668 "></polyline>
<polyline clip-path="url(#clip680)" style="stroke:#000000; stroke-linecap:round; stroke-linejoin:round; stroke-width:4; stroke-opacity:1; fill:none" points="222.69,314.153 241.588,314.153 "></polyline>
<path clip-path="url(#clip680)" d="M117.565 1262.49 L125.203 1262.49 L125.203 1236.12 L116.893 1237.79 L116.893 1233.53 L125.157 1231.86 L129.833 1231.86 L129.833 1262.49 L137.472 1262.49 L137.472 1266.42 L117.565 1266.42 L117.565 1262.49 Z" fill="#000000" fill-rule="nonzero" fill-opacity="1"></path><path clip-path="url(#clip680)" d="M156.916 1234.94 Q153.305 1234.94 151.476 1238.51 Q149.671 1242.05 149.671 1249.18 Q149.671 1256.28 151.476 1259.85 Q153.305 1263.39 156.916 1263.39 Q160.55 1263.39 162.356 1259.85 Q164.185 1256.28 164.185 1249.18 Q164.185 1242.05 162.356 1238.51 Q160.55 1234.94 156.916 1234.94 M156.916 1231.24 Q162.726 1231.24 165.782 1235.85 Q168.861 1240.43 168.861 1249.18 Q168.861 1257.91 165.782 1262.51 Q162.726 1267.09 156.916 1267.09 Q151.106 1267.09 148.027 1262.51 Q144.972 1257.91 144.972 1249.18 Q144.972 1240.43 148.027 1235.85 Q151.106 1231.24 156.916 1231.24 Z" fill="#000000" fill-rule="nonzero" fill-opacity="1"></path><path clip-path="url(#clip680)" d="M173.431 1235.82 L186.69 1235.82 L186.69 1239.01 L168.861 1239.01 L168.861 1235.82 Q171.023 1233.58 174.747 1229.82 Q178.49 1226.04 179.449 1224.95 Q181.274 1222.89 181.988 1221.48 Q182.722 1220.05 182.722 1218.68 Q182.722 1216.44 181.142 1215.03 Q179.581 1213.62 177.061 1213.62 Q175.274 1213.62 173.28 1214.24 Q171.306 1214.86 169.049 1216.12 L169.049 1212.29 Q171.343 1211.37 173.337 1210.9 Q175.33 1210.43 176.986 1210.43 Q181.349 1210.43 183.944 1212.61 Q186.54 1214.79 186.54 1218.44 Q186.54 1220.17 185.882 1221.73 Q185.242 1223.27 183.531 1225.38 Q183.06 1225.92 180.54 1228.54 Q178.02 1231.13 173.431 1235.82 Z" fill="#000000" fill-rule="nonzero" fill-opacity="1"></path><path clip-path="url(#clip680)" d="M116.906 952.974 L124.545 952.974 L124.545 926.609 L116.235 928.275 L116.235 924.016 L124.499 922.349 L129.175 922.349 L129.175 952.974 L136.814 952.974 L136.814 956.909 L116.906 956.909 L116.906 952.974 Z" fill="#000000" fill-rule="nonzero" fill-opacity="1"></path><path clip-path="url(#clip680)" d="M156.258 925.428 Q152.647 925.428 150.818 928.993 Q149.013 932.535 149.013 939.664 Q149.013 946.771 150.818 950.335 Q152.647 953.877 156.258 953.877 Q159.892 953.877 161.698 950.335 Q163.526 946.771 163.526 939.664 Q163.526 932.535 161.698 928.993 Q159.892 925.428 156.258 925.428 M156.258 921.724 Q162.068 921.724 165.124 926.331 Q168.202 930.914 168.202 939.664 Q168.202 948.391 165.124 952.997 Q162.068 957.581 156.258 957.581 Q150.448 957.581 147.369 952.997 Q144.314 948.391 144.314 939.664 Q144.314 930.914 147.369 926.331 Q150.448 921.724 156.258 921.724 Z" fill="#000000" fill-rule="nonzero" fill-opacity="1"></path><path clip-path="url(#clip680)" d="M180.898 914.359 Q183.625 914.942 185.148 916.785 Q186.69 918.628 186.69 921.336 Q186.69 925.493 183.832 927.769 Q180.973 930.044 175.707 930.044 Q173.939 930.044 172.058 929.687 Q170.196 929.349 168.202 928.653 L168.202 924.985 Q169.782 925.907 171.663 926.377 Q173.544 926.847 175.594 926.847 Q179.167 926.847 181.029 925.437 Q182.91 924.026 182.91 921.336 Q182.91 918.854 181.161 917.462 Q179.431 916.051 176.327 916.051 L173.055 916.051 L173.055 912.929 L176.478 912.929 Q179.28 912.929 180.766 911.82 Q182.252 910.691 182.252 908.585 Q182.252 906.422 180.709 905.275 Q179.186 904.109 176.327 904.109 Q174.766 904.109 172.979 904.447 Q171.193 904.786 169.049 905.5 L169.049 902.115 Q171.212 901.513 173.092 901.212 Q174.992 900.911 176.666 900.911 Q180.992 900.911 183.512 902.886 Q186.032 904.842 186.032 908.19 Q186.032 910.522 184.697 912.139 Q183.361 913.738 180.898 914.359 Z" fill="#000000" fill-rule="nonzero" fill-opacity="1"></path><path clip-path="url(#clip680)" d="M114.931 643.46 L122.57 643.46 L122.57 617.094 L114.26 618.761 L114.26 614.502 L122.524 612.835 L127.2 612.835 L127.2 643.46 L134.839 643.46 L134.839 647.395 L114.931 647.395 L114.931 643.46 Z" fill="#000000" fill-rule="nonzero" fill-opacity="1"></path><path clip-path="url(#clip680)" d="M154.283 615.914 Q150.672 615.914 148.843 619.479 Q147.038 623.02 147.038 630.15 Q147.038 637.256 148.843 640.821 Q150.672 644.363 154.283 644.363 Q157.917 644.363 159.723 640.821 Q161.552 637.256 161.552 630.15 Q161.552 623.02 159.723 619.479 Q157.917 615.914 154.283 615.914 M154.283 612.21 Q160.093 612.21 163.149 616.817 Q166.227 621.4 166.227 630.15 Q166.227 638.877 163.149 643.483 Q160.093 648.066 154.283 648.066 Q148.473 648.066 145.394 643.483 Q142.339 638.877 142.339 630.15 Q142.339 621.4 145.394 616.817 Q148.473 612.21 154.283 612.21 Z" fill="#000000" fill-rule="nonzero" fill-opacity="1"></path><path clip-path="url(#clip680)" d="M178.904 595.215 L169.312 610.205 L178.904 610.205 L178.904 595.215 M177.907 591.905 L182.684 591.905 L182.684 610.205 L186.69 610.205 L186.69 613.364 L182.684 613.364 L182.684 619.985 L178.904 619.985 L178.904 613.364 L166.227 613.364 L166.227 609.697 L177.907 591.905 Z" fill="#000000" fill-rule="nonzero" fill-opacity="1"></path><path clip-path="url(#clip680)" d="M117.226 333.946 L124.865 333.946 L124.865 307.58 L116.555 309.247 L116.555 304.988 L124.819 303.321 L129.494 303.321 L129.494 333.946 L137.133 333.946 L137.133 337.881 L117.226 337.881 L117.226 333.946 Z" fill="#000000" fill-rule="nonzero" fill-opacity="1"></path><path clip-path="url(#clip680)" d="M156.578 306.4 Q152.967 306.4 151.138 309.964 Q149.332 313.506 149.332 320.636 Q149.332 327.742 151.138 331.307 Q152.967 334.849 156.578 334.849 Q160.212 334.849 162.017 331.307 Q163.846 327.742 163.846 320.636 Q163.846 313.506 162.017 309.964 Q160.212 306.4 156.578 306.4 M156.578 302.696 Q162.388 302.696 165.443 307.302 Q168.522 311.886 168.522 320.636 Q168.522 329.362 165.443 333.969 Q162.388 338.552 156.578 338.552 Q150.767 338.552 147.689 333.969 Q144.633 329.362 144.633 320.636 Q144.633 311.886 147.689 307.302 Q150.767 302.696 156.578 302.696 Z" fill="#000000" fill-rule="nonzero" fill-opacity="1"></path><path clip-path="url(#clip680)" d="M169.707 282.391 L184.621 282.391 L184.621 285.588 L173.186 285.588 L173.186 292.471 Q174.014 292.189 174.841 292.058 Q175.669 291.907 176.497 291.907 Q181.198 291.907 183.944 294.484 Q186.69 297.061 186.69 301.462 Q186.69 305.994 183.869 308.515 Q181.048 311.016 175.913 311.016 Q174.146 311.016 172.302 310.715 Q170.478 310.414 168.522 309.812 L168.522 305.994 Q170.215 306.916 172.02 307.367 Q173.826 307.819 175.838 307.819 Q179.092 307.819 180.992 306.107 Q182.891 304.396 182.891 301.462 Q182.891 298.528 180.992 296.816 Q179.092 295.105 175.838 295.105 Q174.315 295.105 172.791 295.443 Q171.287 295.782 169.707 296.496 L169.707 282.391 Z" fill="#000000" fill-rule="nonzero" fill-opacity="1"></path><path clip-path="url(#clip680)" d="M16.4842 917.67 L16.4842 877.47 L21.895 877.47 L21.895 894.339 L64.0042 894.339 L64.0042 900.801 L21.895 900.801 L21.895 917.67 L16.4842 917.67 Z" fill="#000000" fill-rule="nonzero" fill-opacity="1"></path><path clip-path="url(#clip680)" d="M28.3562 873.524 L28.3562 867.667 L64.0042 867.667 L64.0042 873.524 L28.3562 873.524 M14.479 873.524 L14.479 867.667 L21.895 867.667 L21.895 873.524 L14.479 873.524 Z" fill="#000000" fill-rule="nonzero" fill-opacity="1"></path><path clip-path="url(#clip680)" d="M35.1993 827.659 Q31.2526 825.462 29.3747 822.407 Q27.4968 819.351 27.4968 815.214 Q27.4968 809.644 31.4117 806.62 Q35.2948 803.596 42.4881 803.596 L64.0042 803.596 L64.0042 809.485 L42.679 809.485 Q37.5546 809.485 35.072 811.299 Q32.5894 813.113 32.5894 816.837 Q32.5894 821.388 35.6131 824.03 Q38.6368 826.672 43.8567 826.672 L64.0042 826.672 L64.0042 832.56 L42.679 832.56 Q37.5228 832.56 35.072 834.374 Q32.5894 836.189 32.5894 839.976 Q32.5894 844.464 35.6449 847.106 Q38.6686 849.748 43.8567 849.748 L64.0042 849.748 L64.0042 855.636 L28.3562 855.636 L28.3562 849.748 L33.8944 849.748 Q30.616 847.742 29.0564 844.941 Q27.4968 842.141 27.4968 838.289 Q27.4968 834.406 29.4702 831.701 Q31.4436 828.964 35.1993 827.659 Z" fill="#000000" fill-rule="nonzero" fill-opacity="1"></path><path clip-path="url(#clip680)" d="M44.7161 761.423 L47.5806 761.423 L47.5806 788.35 Q53.6281 787.968 56.8109 784.722 Q59.9619 781.444 59.9619 775.619 Q59.9619 772.245 59.1344 769.094 Q58.3069 765.911 56.6518 762.792 L62.1899 762.792 Q63.5267 765.943 64.227 769.253 Q64.9272 772.563 64.9272 775.969 Q64.9272 784.499 59.9619 789.496 Q54.9967 794.461 46.5303 794.461 Q37.7774 794.461 32.6531 789.751 Q27.4968 785.008 27.4968 776.988 Q27.4968 769.794 32.1438 765.625 Q36.7589 761.423 44.7161 761.423 M42.9973 767.28 Q38.1912 767.344 35.3266 769.985 Q32.4621 772.595 32.4621 776.924 Q32.4621 781.826 35.2312 784.786 Q38.0002 787.714 43.0292 788.159 L42.9973 767.28 Z" fill="#000000" fill-rule="nonzero" fill-opacity="1"></path><path clip-path="url(#clip680)" d="M14.5426 717.023 Q21.8632 721.288 29.0246 723.356 Q36.186 725.425 43.5384 725.425 Q50.8908 725.425 58.1159 723.356 Q65.3091 721.256 72.5979 717.023 L72.5979 722.115 Q65.1182 726.889 57.8931 729.277 Q50.668 731.632 43.5384 731.632 Q36.4406 731.632 29.2474 729.277 Q22.0542 726.921 14.5426 722.115 L14.5426 717.023 Z" fill="#000000" fill-rule="nonzero" fill-opacity="1"></path><path clip-path="url(#clip680)" d="M42.4881 676.027 L64.0042 676.027 L64.0042 681.884 L42.679 681.884 Q37.6183 681.884 35.1038 683.857 Q32.5894 685.831 32.5894 689.777 Q32.5894 694.52 35.6131 697.257 Q38.6368 699.994 43.8567 699.994 L64.0042 699.994 L64.0042 705.883 L28.3562 705.883 L28.3562 699.994 L33.8944 699.994 Q30.6797 697.894 29.0883 695.061 Q27.4968 692.196 27.4968 688.472 Q27.4968 682.33 31.3163 679.178 Q35.1038 676.027 42.4881 676.027 Z" fill="#000000" fill-rule="nonzero" fill-opacity="1"></path><path clip-path="url(#clip680)" d="M29.4065 641.621 L34.9447 641.621 Q33.6716 644.103 33.035 646.777 Q32.3984 649.451 32.3984 652.315 Q32.3984 656.676 33.7352 658.872 Q35.072 661.036 37.7456 661.036 Q39.7826 661.036 40.9603 659.477 Q42.1061 657.917 43.1565 653.206 L43.6021 651.201 Q44.9389 644.963 47.3897 642.353 Q49.8086 639.711 54.1691 639.711 Q59.1344 639.711 62.0308 643.658 Q64.9272 647.573 64.9272 654.448 Q64.9272 657.312 64.3543 660.431 Q63.8132 663.519 62.6992 666.956 L56.6518 666.956 Q58.3387 663.71 59.198 660.559 Q60.0256 657.408 60.0256 654.32 Q60.0256 650.183 58.6251 647.955 Q57.1929 645.727 54.6147 645.727 Q52.2276 645.727 50.9545 647.35 Q49.6813 648.941 48.5037 654.384 L48.0262 656.421 Q46.8804 661.864 44.5251 664.283 Q42.138 666.702 38.0002 666.702 Q32.9713 666.702 30.2341 663.137 Q27.4968 659.572 27.4968 653.015 Q27.4968 649.769 27.9743 646.904 Q28.4517 644.04 29.4065 641.621 Z" fill="#000000" fill-rule="nonzero" fill-opacity="1"></path><path clip-path="url(#clip680)" d="M14.5426 631.308 L14.5426 626.216 Q22.0542 621.442 29.2474 619.086 Q36.4406 616.699 43.5384 616.699 Q50.668 616.699 57.8931 619.086 Q65.1182 621.442 72.5979 626.216 L72.5979 631.308 Q65.3091 627.075 58.1159 625.006 Q50.8908 622.906 43.5384 622.906 Q36.186 622.906 29.0246 625.006 Q21.8632 627.075 14.5426 631.308 Z" fill="#000000" fill-rule="nonzero" fill-opacity="1"></path><path clip-path="url(#clip680)" d="M358.952 12.096 L371.145 12.096 L386.579 53.2532 L402.094 12.096 L414.287 12.096 L414.287 72.576 L406.307 72.576 L406.307 19.4686 L390.711 60.9499 L382.488 60.9499 L366.892 19.4686 L366.892 72.576 L358.952 72.576 L358.952 12.096 Z" fill="#000000" fill-rule="nonzero" fill-opacity="1"></path><path clip-path="url(#clip680)" d="M469.015 48.0275 L469.015 51.6733 L434.744 51.6733 Q435.231 59.3701 439.362 63.421 Q443.535 67.4314 450.948 67.4314 Q455.242 67.4314 459.252 66.3781 Q463.303 65.3249 467.273 63.2184 L467.273 70.267 Q463.263 71.9684 459.05 72.8596 Q454.837 73.7508 450.502 73.7508 Q439.646 73.7508 433.286 67.4314 Q426.967 61.1119 426.967 50.3365 Q426.967 39.1965 432.962 32.6746 Q438.998 26.1121 449.206 26.1121 Q458.361 26.1121 463.668 32.0264 Q469.015 37.9003 469.015 48.0275 M461.561 45.84 Q461.48 39.7232 458.118 36.0774 Q454.796 32.4315 449.287 32.4315 Q443.049 32.4315 439.281 35.9558 Q435.555 39.4801 434.988 45.8805 L461.561 45.84 Z" fill="#000000" fill-rule="nonzero" fill-opacity="1"></path><path clip-path="url(#clip680)" d="M511.104 34.0924 L511.104 9.54393 L518.558 9.54393 L518.558 72.576 L511.104 72.576 L511.104 65.7705 Q508.754 69.8214 505.149 71.8063 Q501.584 73.7508 496.561 73.7508 Q488.338 73.7508 483.153 67.1883 Q478.008 60.6258 478.008 49.9314 Q478.008 39.2371 483.153 32.6746 Q488.338 26.1121 496.561 26.1121 Q501.584 26.1121 505.149 28.0971 Q508.754 30.0415 511.104 34.0924 M485.705 49.9314 Q485.705 58.1548 489.067 62.8538 Q492.47 67.5124 498.384 67.5124 Q504.298 67.5124 507.701 62.8538 Q511.104 58.1548 511.104 49.9314 Q511.104 41.7081 507.701 37.0496 Q504.298 32.3505 498.384 32.3505 Q492.47 32.3505 489.067 37.0496 Q485.705 41.7081 485.705 49.9314 Z" fill="#000000" fill-rule="nonzero" fill-opacity="1"></path><path clip-path="url(#clip680)" d="M533.911 27.2059 L541.364 27.2059 L541.364 72.576 L533.911 72.576 L533.911 27.2059 M533.911 9.54393 L541.364 9.54393 L541.364 18.9825 L533.911 18.9825 L533.911 9.54393 Z" fill="#000000" fill-rule="nonzero" fill-opacity="1"></path><path clip-path="url(#clip680)" d="M577.579 49.7694 Q568.546 49.7694 565.062 51.8354 Q561.578 53.9013 561.578 58.8839 Q561.578 62.8538 564.171 65.2034 Q566.804 67.5124 571.3 67.5124 Q577.498 67.5124 581.225 63.1374 Q584.993 58.7219 584.993 51.4303 L584.993 49.7694 L577.579 49.7694 M592.446 46.6907 L592.446 72.576 L584.993 72.576 L584.993 65.6895 Q582.44 69.8214 578.633 71.8063 Q574.825 73.7508 569.316 73.7508 Q562.348 73.7508 558.216 69.8619 Q554.125 65.9325 554.125 59.3701 Q554.125 51.7138 559.229 47.825 Q564.373 43.9361 574.541 43.9361 L584.993 43.9361 L584.993 43.2069 Q584.993 38.0623 581.59 35.2672 Q578.227 32.4315 572.111 32.4315 Q568.222 32.4315 564.535 33.3632 Q560.849 34.295 557.446 36.1584 L557.446 29.2718 Q561.538 27.692 565.386 26.9223 Q569.234 26.1121 572.88 26.1121 Q582.724 26.1121 587.585 31.2163 Q592.446 36.3204 592.446 46.6907 Z" fill="#000000" fill-rule="nonzero" fill-opacity="1"></path><path clip-path="url(#clip680)" d="M645.513 45.1919 L645.513 72.576 L638.059 72.576 L638.059 45.4349 Q638.059 38.994 635.548 35.7938 Q633.036 32.5936 628.013 32.5936 Q621.977 32.5936 618.493 36.4419 Q615.01 40.2903 615.01 46.9338 L615.01 72.576 L607.516 72.576 L607.516 27.2059 L615.01 27.2059 L615.01 34.2544 Q617.683 30.163 621.289 28.1376 Q624.934 26.1121 629.674 26.1121 Q637.492 26.1121 641.503 30.9732 Q645.513 35.7938 645.513 45.1919 Z" fill="#000000" fill-rule="nonzero" fill-opacity="1"></path><path clip-path="url(#clip680)" d="M694.124 14.324 L694.124 27.2059 L709.477 27.2059 L709.477 32.9987 L694.124 32.9987 L694.124 57.6282 Q694.124 63.1779 695.623 64.7578 Q697.162 66.3376 701.821 66.3376 L709.477 66.3376 L709.477 72.576 L701.821 72.576 Q693.192 72.576 689.911 69.3758 Q686.63 66.1351 686.63 57.6282 L686.63 32.9987 L681.161 32.9987 L681.161 27.2059 L686.63 27.2059 L686.63 14.324 L694.124 14.324 Z" fill="#000000" fill-rule="nonzero" fill-opacity="1"></path><path clip-path="url(#clip680)" d="M719.28 27.2059 L726.734 27.2059 L726.734 72.576 L719.28 72.576 L719.28 27.2059 M719.28 9.54393 L726.734 9.54393 L726.734 18.9825 L719.28 18.9825 L719.28 9.54393 Z" fill="#000000" fill-rule="nonzero" fill-opacity="1"></path><path clip-path="url(#clip680)" d="M777.654 35.9153 Q780.449 30.8922 784.338 28.5022 Q788.226 26.1121 793.493 26.1121 Q800.582 26.1121 804.43 31.0947 Q808.278 36.0368 808.278 45.1919 L808.278 72.576 L800.784 72.576 L800.784 45.4349 Q800.784 38.913 798.475 35.7533 Q796.166 32.5936 791.427 32.5936 Q785.634 32.5936 782.272 36.4419 Q778.909 40.2903 778.909 46.9338 L778.909 72.576 L771.415 72.576 L771.415 45.4349 Q771.415 38.8725 769.106 35.7533 Q766.797 32.5936 761.977 32.5936 Q756.265 32.5936 752.902 36.4824 Q749.54 40.3308 749.54 46.9338 L749.54 72.576 L742.046 72.576 L742.046 27.2059 L749.54 27.2059 L749.54 34.2544 Q752.092 30.082 755.657 28.0971 Q759.222 26.1121 764.123 26.1121 Q769.066 26.1121 772.509 28.6237 Q775.993 31.1352 777.654 35.9153 Z" fill="#000000" fill-rule="nonzero" fill-opacity="1"></path><path clip-path="url(#clip680)" d="M861.953 48.0275 L861.953 51.6733 L827.682 51.6733 Q828.168 59.3701 832.3 63.421 Q836.473 67.4314 843.886 67.4314 Q848.18 67.4314 852.19 66.3781 Q856.241 65.3249 860.211 63.2184 L860.211 70.267 Q856.201 71.9684 851.988 72.8596 Q847.775 73.7508 843.44 73.7508 Q832.584 73.7508 826.224 67.4314 Q819.904 61.1119 819.904 50.3365 Q819.904 39.1965 825.9 32.6746 Q831.936 26.1121 842.144 26.1121 Q851.299 26.1121 856.606 32.0264 Q861.953 37.9003 861.953 48.0275 M854.499 45.84 Q854.418 39.7232 851.056 36.0774 Q847.734 32.4315 842.225 32.4315 Q835.987 32.4315 832.219 35.9558 Q828.492 39.4801 827.925 45.8805 L854.499 45.84 Z" fill="#000000" fill-rule="nonzero" fill-opacity="1"></path><path clip-path="url(#clip680)" d="M923.527 9.54393 L923.527 15.7418 L916.397 15.7418 Q912.387 15.7418 910.807 17.3622 Q909.267 18.9825 909.267 23.1955 L909.267 27.2059 L921.542 27.2059 L921.542 32.9987 L909.267 32.9987 L909.267 72.576 L901.773 72.576 L901.773 32.9987 L894.644 32.9987 L894.644 27.2059 L901.773 27.2059 L901.773 24.0462 Q901.773 16.471 905.298 13.0277 Q908.822 9.54393 916.478 9.54393 L923.527 9.54393 Z" fill="#000000" fill-rule="nonzero" fill-opacity="1"></path><path clip-path="url(#clip680)" d="M947.346 32.4315 Q941.351 32.4315 937.867 37.1306 Q934.383 41.7891 934.383 49.9314 Q934.383 58.0738 937.826 62.7728 Q941.31 67.4314 947.346 67.4314 Q953.301 67.4314 956.784 62.7323 Q960.268 58.0333 960.268 49.9314 Q960.268 41.8701 956.784 37.1711 Q953.301 32.4315 947.346 32.4315 M947.346 26.1121 Q957.068 26.1121 962.618 32.4315 Q968.168 38.7509 968.168 49.9314 Q968.168 61.0714 962.618 67.4314 Q957.068 73.7508 947.346 73.7508 Q937.583 73.7508 932.033 67.4314 Q926.524 61.0714 926.524 49.9314 Q926.524 38.7509 932.033 32.4315 Q937.583 26.1121 947.346 26.1121 Z" fill="#000000" fill-rule="nonzero" fill-opacity="1"></path><path clip-path="url(#clip680)" d="M1006.81 34.1734 Q1005.56 33.4443 1004.06 33.1202 Q1002.6 32.7556 1000.82 32.7556 Q994.498 32.7556 991.096 36.8875 Q987.733 40.9789 987.733 48.6757 L987.733 72.576 L980.239 72.576 L980.239 27.2059 L987.733 27.2059 L987.733 34.2544 Q990.083 30.1225 993.85 28.1376 Q997.618 26.1121 1003.01 26.1121 Q1003.77 26.1121 1004.71 26.2337 Q1005.64 26.3147 1006.77 26.5172 L1006.81 34.1734 Z" fill="#000000" fill-rule="nonzero" fill-opacity="1"></path><path clip-path="url(#clip680)" d="M1058.58 32.4315 Q1052.59 32.4315 1049.1 37.1306 Q1045.62 41.7891 1045.62 49.9314 Q1045.62 58.0738 1049.06 62.7728 Q1052.55 67.4314 1058.58 67.4314 Q1064.54 67.4314 1068.02 62.7323 Q1071.51 58.0333 1071.51 49.9314 Q1071.51 41.8701 1068.02 37.1711 Q1064.54 32.4315 1058.58 32.4315 M1058.58 26.1121 Q1068.31 26.1121 1073.86 32.4315 Q1079.41 38.7509 1079.41 49.9314 Q1079.41 61.0714 1073.86 67.4314 Q1068.31 73.7508 1058.58 73.7508 Q1048.82 73.7508 1043.27 67.4314 Q1037.76 61.0714 1037.76 49.9314 Q1037.76 38.7509 1043.27 32.4315 Q1048.82 26.1121 1058.58 26.1121 Z" fill="#000000" fill-rule="nonzero" fill-opacity="1"></path><path clip-path="url(#clip680)" d="M1129.47 45.1919 L1129.47 72.576 L1122.02 72.576 L1122.02 45.4349 Q1122.02 38.994 1119.51 35.7938 Q1117 32.5936 1111.97 32.5936 Q1105.94 32.5936 1102.46 36.4419 Q1098.97 40.2903 1098.97 46.9338 L1098.97 72.576 L1091.48 72.576 L1091.48 27.2059 L1098.97 27.2059 L1098.97 34.2544 Q1101.64 30.163 1105.25 28.1376 Q1108.9 26.1121 1113.64 26.1121 Q1121.45 26.1121 1125.46 30.9732 Q1129.47 35.7938 1129.47 45.1919 Z" fill="#000000" fill-rule="nonzero" fill-opacity="1"></path><path clip-path="url(#clip680)" d="M1183.15 48.0275 L1183.15 51.6733 L1148.88 51.6733 Q1149.36 59.3701 1153.5 63.421 Q1157.67 67.4314 1165.08 67.4314 Q1169.38 67.4314 1173.39 66.3781 Q1177.44 65.3249 1181.41 63.2184 L1181.41 70.267 Q1177.4 71.9684 1173.18 72.8596 Q1168.97 73.7508 1164.64 73.7508 Q1153.78 73.7508 1147.42 67.4314 Q1141.1 61.1119 1141.1 50.3365 Q1141.1 39.1965 1147.1 32.6746 Q1153.13 26.1121 1163.34 26.1121 Q1172.5 26.1121 1177.8 32.0264 Q1183.15 37.9003 1183.15 48.0275 M1175.7 45.84 Q1175.61 39.7232 1172.25 36.0774 Q1168.93 32.4315 1163.42 32.4315 Q1157.18 32.4315 1153.42 35.9558 Q1149.69 39.4801 1149.12 45.8805 L1175.7 45.84 Z" fill="#000000" fill-rule="nonzero" fill-opacity="1"></path><path clip-path="url(#clip680)" d="M1246.63 17.6457 Q1237.71 17.6457 1232.45 24.2892 Q1227.22 30.9327 1227.22 42.3968 Q1227.22 53.8203 1232.45 60.4638 Q1237.71 67.1073 1246.63 67.1073 Q1255.54 67.1073 1260.72 60.4638 Q1265.95 53.8203 1265.95 42.3968 Q1265.95 30.9327 1260.72 24.2892 Q1255.54 17.6457 1246.63 17.6457 M1246.63 11.0023 Q1259.35 11.0023 1266.96 19.5497 Q1274.58 28.0566 1274.58 42.3968 Q1274.58 56.6965 1266.96 65.2439 Q1259.35 73.7508 1246.63 73.7508 Q1233.87 73.7508 1226.21 65.2439 Q1218.59 56.737 1218.59 42.3968 Q1218.59 28.0566 1226.21 19.5497 Q1233.87 11.0023 1246.63 11.0023 Z" fill="#000000" fill-rule="nonzero" fill-opacity="1"></path><path clip-path="url(#clip680)" d="M1295.56 18.8205 L1295.56 65.8515 L1305.45 65.8515 Q1317.96 65.8515 1323.76 60.1802 Q1329.59 54.509 1329.59 42.2752 Q1329.59 30.1225 1323.76 24.4918 Q1317.96 18.8205 1305.45 18.8205 L1295.56 18.8205 M1287.38 12.096 L1304.19 12.096 Q1321.77 12.096 1329.99 19.4281 Q1338.22 26.7198 1338.22 42.2752 Q1338.22 57.9117 1329.95 65.2439 Q1321.69 72.576 1304.19 72.576 L1287.38 72.576 L1287.38 12.096 Z" fill="#000000" fill-rule="nonzero" fill-opacity="1"></path><path clip-path="url(#clip680)" d="M1351.26 12.096 L1389.5 12.096 L1389.5 18.9825 L1359.44 18.9825 L1359.44 36.8875 L1388.25 36.8875 L1388.25 43.7741 L1359.44 43.7741 L1359.44 65.6895 L1390.23 65.6895 L1390.23 72.576 L1351.26 72.576 L1351.26 12.096 Z" fill="#000000" fill-rule="nonzero" fill-opacity="1"></path><path clip-path="url(#clip680)" d="M1452.7 9.54393 L1452.7 15.7418 L1445.57 15.7418 Q1441.56 15.7418 1439.98 17.3622 Q1438.44 18.9825 1438.44 23.1955 L1438.44 27.2059 L1450.71 27.2059 L1450.71 32.9987 L1438.44 32.9987 L1438.44 72.576 L1430.94 72.576 L1430.94 32.9987 L1423.81 32.9987 L1423.81 27.2059 L1430.94 27.2059 L1430.94 24.0462 Q1430.94 16.471 1434.47 13.0277 Q1437.99 9.54393 1445.65 9.54393 L1452.7 9.54393 Z" fill="#000000" fill-rule="nonzero" fill-opacity="1"></path><path clip-path="url(#clip680)" d="M1458.16 54.671 L1458.16 27.2059 L1465.62 27.2059 L1465.62 54.3874 Q1465.62 60.8284 1468.13 64.0691 Q1470.64 67.2693 1475.66 67.2693 Q1481.7 67.2693 1485.18 63.421 Q1488.71 59.5726 1488.71 52.9291 L1488.71 27.2059 L1496.16 27.2059 L1496.16 72.576 L1488.71 72.576 L1488.71 65.6084 Q1485.99 69.7404 1482.39 71.7658 Q1478.82 73.7508 1474.08 73.7508 Q1466.27 73.7508 1462.22 68.8897 Q1458.16 64.0286 1458.16 54.671 M1476.92 26.1121 L1476.92 26.1121 Z" fill="#000000" fill-rule="nonzero" fill-opacity="1"></path><path clip-path="url(#clip680)" d="M1549.23 45.1919 L1549.23 72.576 L1541.78 72.576 L1541.78 45.4349 Q1541.78 38.994 1539.26 35.7938 Q1536.75 32.5936 1531.73 32.5936 Q1525.69 32.5936 1522.21 36.4419 Q1518.73 40.2903 1518.73 46.9338 L1518.73 72.576 L1511.23 72.576 L1511.23 27.2059 L1518.73 27.2059 L1518.73 34.2544 Q1521.4 30.163 1525 28.1376 Q1528.65 26.1121 1533.39 26.1121 Q1541.21 26.1121 1545.22 30.9732 Q1549.23 35.7938 1549.23 45.1919 Z" fill="#000000" fill-rule="nonzero" fill-opacity="1"></path><path clip-path="url(#clip680)" d="M1596.75 28.9478 L1596.75 35.9153 Q1593.59 34.1734 1590.39 33.3227 Q1587.23 32.4315 1583.99 32.4315 Q1576.73 32.4315 1572.72 37.0496 Q1568.71 41.6271 1568.71 49.9314 Q1568.71 58.2358 1572.72 62.8538 Q1576.73 67.4314 1583.99 67.4314 Q1587.23 67.4314 1590.39 66.5807 Q1593.59 65.6895 1596.75 63.9476 L1596.75 70.8341 Q1593.63 72.2924 1590.26 73.0216 Q1586.94 73.7508 1583.18 73.7508 Q1572.93 73.7508 1566.89 67.3098 Q1560.86 60.8689 1560.86 49.9314 Q1560.86 38.832 1566.93 32.472 Q1573.05 26.1121 1583.66 26.1121 Q1587.11 26.1121 1590.39 26.8413 Q1593.67 27.5299 1596.75 28.9478 Z" fill="#000000" fill-rule="nonzero" fill-opacity="1"></path><path clip-path="url(#clip680)" d="M1617.08 14.324 L1617.08 27.2059 L1632.43 27.2059 L1632.43 32.9987 L1617.08 32.9987 L1617.08 57.6282 Q1617.08 63.1779 1618.58 64.7578 Q1620.12 66.3376 1624.78 66.3376 L1632.43 66.3376 L1632.43 72.576 L1624.78 72.576 Q1616.15 72.576 1612.87 69.3758 Q1609.59 66.1351 1609.59 57.6282 L1609.59 32.9987 L1604.12 32.9987 L1604.12 27.2059 L1609.59 27.2059 L1609.59 14.324 L1617.08 14.324 Z" fill="#000000" fill-rule="nonzero" fill-opacity="1"></path><path clip-path="url(#clip680)" d="M1642.24 27.2059 L1649.69 27.2059 L1649.69 72.576 L1642.24 72.576 L1642.24 27.2059 M1642.24 9.54393 L1649.69 9.54393 L1649.69 18.9825 L1642.24 18.9825 L1642.24 9.54393 Z" fill="#000000" fill-rule="nonzero" fill-opacity="1"></path><path clip-path="url(#clip680)" d="M1682.87 32.4315 Q1676.87 32.4315 1673.39 37.1306 Q1669.91 41.7891 1669.91 49.9314 Q1669.91 58.0738 1673.35 62.7728 Q1676.83 67.4314 1682.87 67.4314 Q1688.82 67.4314 1692.31 62.7323 Q1695.79 58.0333 1695.79 49.9314 Q1695.79 41.8701 1692.31 37.1711 Q1688.82 32.4315 1682.87 32.4315 M1682.87 26.1121 Q1692.59 26.1121 1698.14 32.4315 Q1703.69 38.7509 1703.69 49.9314 Q1703.69 61.0714 1698.14 67.4314 Q1692.59 73.7508 1682.87 73.7508 Q1673.11 73.7508 1667.56 67.4314 Q1662.05 61.0714 1662.05 49.9314 Q1662.05 38.7509 1667.56 32.4315 Q1673.11 26.1121 1682.87 26.1121 Z" fill="#000000" fill-rule="nonzero" fill-opacity="1"></path><path clip-path="url(#clip680)" d="M1753.76 45.1919 L1753.76 72.576 L1746.31 72.576 L1746.31 45.4349 Q1746.31 38.994 1743.79 35.7938 Q1741.28 32.5936 1736.26 32.5936 Q1730.22 32.5936 1726.74 36.4419 Q1723.26 40.2903 1723.26 46.9338 L1723.26 72.576 L1715.76 72.576 L1715.76 27.2059 L1723.26 27.2059 L1723.26 34.2544 Q1725.93 30.163 1729.53 28.1376 Q1733.18 26.1121 1737.92 26.1121 Q1745.74 26.1121 1749.75 30.9732 Q1753.76 35.7938 1753.76 45.1919 Z" fill="#000000" fill-rule="nonzero" fill-opacity="1"></path><path clip-path="url(#clip680)" d="M1833.81 48.0275 L1833.81 51.6733 L1799.53 51.6733 Q1800.02 59.3701 1804.15 63.421 Q1808.33 67.4314 1815.74 67.4314 Q1820.03 67.4314 1824.04 66.3781 Q1828.09 65.3249 1832.06 63.2184 L1832.06 70.267 Q1828.05 71.9684 1823.84 72.8596 Q1819.63 73.7508 1815.29 73.7508 Q1804.44 73.7508 1798.08 67.4314 Q1791.76 61.1119 1791.76 50.3365 Q1791.76 39.1965 1797.75 32.6746 Q1803.79 26.1121 1814 26.1121 Q1823.15 26.1121 1828.46 32.0264 Q1833.81 37.9003 1833.81 48.0275 M1826.35 45.84 Q1826.27 39.7232 1822.91 36.0774 Q1819.59 32.4315 1814.08 32.4315 Q1807.84 32.4315 1804.07 35.9558 Q1800.34 39.4801 1799.78 45.8805 L1826.35 45.84 Z" fill="#000000" fill-rule="nonzero" fill-opacity="1"></path><path clip-path="url(#clip680)" d="M1840.69 27.2059 L1848.59 27.2059 L1862.77 65.2844 L1876.95 27.2059 L1884.85 27.2059 L1867.83 72.576 L1857.71 72.576 L1840.69 27.2059 Z" fill="#000000" fill-rule="nonzero" fill-opacity="1"></path><path clip-path="url(#clip680)" d="M1915.76 49.7694 Q1906.72 49.7694 1903.24 51.8354 Q1899.75 53.9013 1899.75 58.8839 Q1899.75 62.8538 1902.35 65.2034 Q1904.98 67.5124 1909.48 67.5124 Q1915.67 67.5124 1919.4 63.1374 Q1923.17 58.7219 1923.17 51.4303 L1923.17 49.7694 L1915.76 49.7694 M1930.62 46.6907 L1930.62 72.576 L1923.17 72.576 L1923.17 65.6895 Q1920.62 69.8214 1916.81 71.8063 Q1913 73.7508 1907.49 73.7508 Q1900.52 73.7508 1896.39 69.8619 Q1892.3 65.9325 1892.3 59.3701 Q1892.3 51.7138 1897.4 47.825 Q1902.55 43.9361 1912.72 43.9361 L1923.17 43.9361 L1923.17 43.2069 Q1923.17 38.0623 1919.77 35.2672 Q1916.4 32.4315 1910.29 32.4315 Q1906.4 32.4315 1902.71 33.3632 Q1899.02 34.295 1895.62 36.1584 L1895.62 29.2718 Q1899.71 27.692 1903.56 26.9223 Q1907.41 26.1121 1911.06 26.1121 Q1920.9 26.1121 1925.76 31.2163 Q1930.62 36.3204 1930.62 46.6907 Z" fill="#000000" fill-rule="nonzero" fill-opacity="1"></path><path clip-path="url(#clip680)" d="M1945.97 9.54393 L1953.43 9.54393 L1953.43 72.576 L1945.97 72.576 L1945.97 9.54393 Z" fill="#000000" fill-rule="nonzero" fill-opacity="1"></path><path clip-path="url(#clip680)" d="M1968.25 54.671 L1968.25 27.2059 L1975.71 27.2059 L1975.71 54.3874 Q1975.71 60.8284 1978.22 64.0691 Q1980.73 67.2693 1985.75 67.2693 Q1991.79 67.2693 1995.27 63.421 Q1998.8 59.5726 1998.8 52.9291 L1998.8 27.2059 L2006.25 27.2059 L2006.25 72.576 L1998.8 72.576 L1998.8 65.6084 Q1996.08 69.7404 1992.48 71.7658 Q1988.91 73.7508 1984.17 73.7508 Q1976.36 73.7508 1972.31 68.8897 Q1968.25 64.0286 1968.25 54.671 M1987.01 26.1121 L1987.01 26.1121 Z" fill="#000000" fill-rule="nonzero" fill-opacity="1"></path><path clip-path="url(#clip680)" d="M2042.22 49.7694 Q2033.19 49.7694 2029.71 51.8354 Q2026.22 53.9013 2026.22 58.8839 Q2026.22 62.8538 2028.82 65.2034 Q2031.45 67.5124 2035.95 67.5124 Q2042.14 67.5124 2045.87 63.1374 Q2049.64 58.7219 2049.64 51.4303 L2049.64 49.7694 L2042.22 49.7694 M2057.09 46.6907 L2057.09 72.576 L2049.64 72.576 L2049.64 65.6895 Q2047.09 69.8214 2043.28 71.8063 Q2039.47 73.7508 2033.96 73.7508 Q2026.99 73.7508 2022.86 69.8619 Q2018.77 65.9325 2018.77 59.3701 Q2018.77 51.7138 2023.87 47.825 Q2029.02 43.9361 2039.19 43.9361 L2049.64 43.9361 L2049.64 43.2069 Q2049.64 38.0623 2046.23 35.2672 Q2042.87 32.4315 2036.76 32.4315 Q2032.87 32.4315 2029.18 33.3632 Q2025.49 34.295 2022.09 36.1584 L2022.09 29.2718 Q2026.18 27.692 2030.03 26.9223 Q2033.88 26.1121 2037.53 26.1121 Q2047.37 26.1121 2052.23 31.2163 Q2057.09 36.3204 2057.09 46.6907 Z" fill="#000000" fill-rule="nonzero" fill-opacity="1"></path><path clip-path="url(#clip680)" d="M2079.82 14.324 L2079.82 27.2059 L2095.17 27.2059 L2095.17 32.9987 L2079.82 32.9987 L2079.82 57.6282 Q2079.82 63.1779 2081.32 64.7578 Q2082.85 66.3376 2087.51 66.3376 L2095.17 66.3376 L2095.17 72.576 L2087.51 72.576 Q2078.88 72.576 2075.6 69.3758 Q2072.32 66.1351 2072.32 57.6282 L2072.32 32.9987 L2066.85 32.9987 L2066.85 27.2059 L2072.32 27.2059 L2072.32 14.324 L2079.82 14.324 Z" fill="#000000" fill-rule="nonzero" fill-opacity="1"></path><path clip-path="url(#clip680)" d="M2104.97 27.2059 L2112.43 27.2059 L2112.43 72.576 L2104.97 72.576 L2104.97 27.2059 M2104.97 9.54393 L2112.43 9.54393 L2112.43 18.9825 L2104.97 18.9825 L2104.97 9.54393 Z" fill="#000000" fill-rule="nonzero" fill-opacity="1"></path><path clip-path="url(#clip680)" d="M2145.6 32.4315 Q2139.61 32.4315 2136.12 37.1306 Q2132.64 41.7891 2132.64 49.9314 Q2132.64 58.0738 2136.08 62.7728 Q2139.57 67.4314 2145.6 67.4314 Q2151.56 67.4314 2155.04 62.7323 Q2158.53 58.0333 2158.53 49.9314 Q2158.53 41.8701 2155.04 37.1711 Q2151.56 32.4315 2145.6 32.4315 M2145.6 26.1121 Q2155.33 26.1121 2160.88 32.4315 Q2166.43 38.7509 2166.43 49.9314 Q2166.43 61.0714 2160.88 67.4314 Q2155.33 73.7508 2145.6 73.7508 Q2135.84 73.7508 2130.29 67.4314 Q2124.78 61.0714 2124.78 49.9314 Q2124.78 38.7509 2130.29 32.4315 Q2135.84 26.1121 2145.6 26.1121 Z" fill="#000000" fill-rule="nonzero" fill-opacity="1"></path><path clip-path="url(#clip680)" d="M2216.49 45.1919 L2216.49 72.576 L2209.04 72.576 L2209.04 45.4349 Q2209.04 38.994 2206.53 35.7938 Q2204.02 32.5936 2198.99 32.5936 Q2192.96 32.5936 2189.47 36.4419 Q2185.99 40.2903 2185.99 46.9338 L2185.99 72.576 L2178.5 72.576 L2178.5 27.2059 L2185.99 27.2059 L2185.99 34.2544 Q2188.66 30.163 2192.27 28.1376 Q2195.92 26.1121 2200.66 26.1121 Q2208.47 26.1121 2212.48 30.9732 Q2216.49 35.7938 2216.49 45.1919 Z" fill="#000000" fill-rule="nonzero" fill-opacity="1"></path><polyline clip-path="url(#clip682)" style="stroke:#009af9; stroke-linecap:round; stroke-linejoin:round; stroke-width:4; stroke-opacity:1; fill:none" points="282.975,1270.64 545.866,1174.9 808.756,1072.22 962.537,1058.4 1156.28,996.193 1419.17,893.161 1682.06,793.524 2029.58,657.319 2292.47,544.698 "></polyline>
<circle clip-path="url(#clip682)" cx="282.975" cy="1270.64" r="10.8" fill="#009af9" fill-rule="evenodd" fill-opacity="1" stroke="#000000" stroke-opacity="1" stroke-width="3.2"></circle>
<circle clip-path="url(#clip682)" cx="545.866" cy="1174.9" r="10.8" fill="#009af9" fill-rule="evenodd" fill-opacity="1" stroke="#000000" stroke-opacity="1" stroke-width="3.2"></circle>
<circle clip-path="url(#clip682)" cx="808.756" cy="1072.22" r="10.8" fill="#009af9" fill-rule="evenodd" fill-opacity="1" stroke="#000000" stroke-opacity="1" stroke-width="3.2"></circle>
<circle clip-path="url(#clip682)" cx="962.537" cy="1058.4" r="10.8" fill="#009af9" fill-rule="evenodd" fill-opacity="1" stroke="#000000" stroke-opacity="1" stroke-width="3.2"></circle>
<circle clip-path="url(#clip682)" cx="1156.28" cy="996.193" r="10.8" fill="#009af9" fill-rule="evenodd" fill-opacity="1" stroke="#000000" stroke-opacity="1" stroke-width="3.2"></circle>
<circle clip-path="url(#clip682)" cx="1419.17" cy="893.161" r="10.8" fill="#009af9" fill-rule="evenodd" fill-opacity="1" stroke="#000000" stroke-opacity="1" stroke-width="3.2"></circle>
<circle clip-path="url(#clip682)" cx="1682.06" cy="793.524" r="10.8" fill="#009af9" fill-rule="evenodd" fill-opacity="1" stroke="#000000" stroke-opacity="1" stroke-width="3.2"></circle>
<circle clip-path="url(#clip682)" cx="2029.58" cy="657.319" r="10.8" fill="#009af9" fill-rule="evenodd" fill-opacity="1" stroke="#000000" stroke-opacity="1" stroke-width="3.2"></circle>
<circle clip-path="url(#clip682)" cx="2292.47" cy="544.698" r="10.8" fill="#009af9" fill-rule="evenodd" fill-opacity="1" stroke="#000000" stroke-opacity="1" stroke-width="3.2"></circle>
<polyline clip-path="url(#clip682)" style="stroke:#e26f46; stroke-linecap:round; stroke-linejoin:round; stroke-width:4; stroke-opacity:1; fill:none" points="282.975,1232.62 545.866,1133.99 808.756,1096.1 962.537,1054.15 1156.28,981.418 1419.17,679.596 1682.06,565.27 2029.58,424.264 2292.47,159.909 "></polyline>
<circle clip-path="url(#clip682)" cx="282.975" cy="1232.62" r="10.8" fill="#e26f46" fill-rule="evenodd" fill-opacity="1" stroke="#000000" stroke-opacity="1" stroke-width="3.2"></circle>
<circle clip-path="url(#clip682)" cx="545.866" cy="1133.99" r="10.8" fill="#e26f46" fill-rule="evenodd" fill-opacity="1" stroke="#000000" stroke-opacity="1" stroke-width="3.2"></circle>
<circle clip-path="url(#clip682)" cx="808.756" cy="1096.1" r="10.8" fill="#e26f46" fill-rule="evenodd" fill-opacity="1" stroke="#000000" stroke-opacity="1" stroke-width="3.2"></circle>
<circle clip-path="url(#clip682)" cx="962.537" cy="1054.15" r="10.8" fill="#e26f46" fill-rule="evenodd" fill-opacity="1" stroke="#000000" stroke-opacity="1" stroke-width="3.2"></circle>
<circle clip-path="url(#clip682)" cx="1156.28" cy="981.418" r="10.8" fill="#e26f46" fill-rule="evenodd" fill-opacity="1" stroke="#000000" stroke-opacity="1" stroke-width="3.2"></circle>
<circle clip-path="url(#clip682)" cx="1419.17" cy="679.596" r="10.8" fill="#e26f46" fill-rule="evenodd" fill-opacity="1" stroke="#000000" stroke-opacity="1" stroke-width="3.2"></circle>
<circle clip-path="url(#clip682)" cx="1682.06" cy="565.27" r="10.8" fill="#e26f46" fill-rule="evenodd" fill-opacity="1" stroke="#000000" stroke-opacity="1" stroke-width="3.2"></circle>
<circle clip-path="url(#clip682)" cx="2029.58" cy="424.264" r="10.8" fill="#e26f46" fill-rule="evenodd" fill-opacity="1" stroke="#000000" stroke-opacity="1" stroke-width="3.2"></circle>
<circle clip-path="url(#clip682)" cx="2292.47" cy="159.909" r="10.8" fill="#e26f46" fill-rule="evenodd" fill-opacity="1" stroke="#000000" stroke-opacity="1" stroke-width="3.2"></circle>
<polyline clip-path="url(#clip682)" style="stroke:#3da44d; stroke-linecap:round; stroke-linejoin:round; stroke-width:4; stroke-opacity:1; fill:none" points="282.975,1124.71 545.866,995.35 808.756,933.883 962.537,883.014 1156.28,812.151 1419.17,694.301 1682.06,619.447 2029.58,494.395 2292.47,386.16 "></polyline>
<circle clip-path="url(#clip682)" cx="282.975" cy="1124.71" r="10.8" fill="#3da44d" fill-rule="evenodd" fill-opacity="1" stroke="#000000" stroke-opacity="1" stroke-width="3.2"></circle>
<circle clip-path="url(#clip682)" cx="545.866" cy="995.35" r="10.8" fill="#3da44d" fill-rule="evenodd" fill-opacity="1" stroke="#000000" stroke-opacity="1" stroke-width="3.2"></circle>
<circle clip-path="url(#clip682)" cx="808.756" cy="933.883" r="10.8" fill="#3da44d" fill-rule="evenodd" fill-opacity="1" stroke="#000000" stroke-opacity="1" stroke-width="3.2"></circle>
<circle clip-path="url(#clip682)" cx="962.537" cy="883.014" r="10.8" fill="#3da44d" fill-rule="evenodd" fill-opacity="1" stroke="#000000" stroke-opacity="1" stroke-width="3.2"></circle>
<circle clip-path="url(#clip682)" cx="1156.28" cy="812.151" r="10.8" fill="#3da44d" fill-rule="evenodd" fill-opacity="1" stroke="#000000" stroke-opacity="1" stroke-width="3.2"></circle>
<circle clip-path="url(#clip682)" cx="1419.17" cy="694.301" r="10.8" fill="#3da44d" fill-rule="evenodd" fill-opacity="1" stroke="#000000" stroke-opacity="1" stroke-width="3.2"></circle>
<circle clip-path="url(#clip682)" cx="1682.06" cy="619.447" r="10.8" fill="#3da44d" fill-rule="evenodd" fill-opacity="1" stroke="#000000" stroke-opacity="1" stroke-width="3.2"></circle>
<circle clip-path="url(#clip682)" cx="2029.58" cy="494.395" r="10.8" fill="#3da44d" fill-rule="evenodd" fill-opacity="1" stroke="#000000" stroke-opacity="1" stroke-width="3.2"></circle>
<circle clip-path="url(#clip682)" cx="2292.47" cy="386.16" r="10.8" fill="#3da44d" fill-rule="evenodd" fill-opacity="1" stroke="#000000" stroke-opacity="1" stroke-width="3.2"></circle>
<polyline clip-path="url(#clip682)" style="stroke:#c271d2; stroke-linecap:round; stroke-linejoin:round; stroke-width:4; stroke-opacity:1; fill:none" points="282.975,1167.82 545.866,1027.96 808.756,962.7 962.537,933.571 1156.28,864.304 1419.17,769.659 1682.06,652.934 2029.58,544.128 2292.47,445.225 "></polyline>
<circle clip-path="url(#clip682)" cx="282.975" cy="1167.82" r="10.8" fill="#c271d2" fill-rule="evenodd" fill-opacity="1" stroke="#000000" stroke-opacity="1" stroke-width="3.2"></circle>
<circle clip-path="url(#clip682)" cx="545.866" cy="1027.96" r="10.8" fill="#c271d2" fill-rule="evenodd" fill-opacity="1" stroke="#000000" stroke-opacity="1" stroke-width="3.2"></circle>
<circle clip-path="url(#clip682)" cx="808.756" cy="962.7" r="10.8" fill="#c271d2" fill-rule="evenodd" fill-opacity="1" stroke="#000000" stroke-opacity="1" stroke-width="3.2"></circle>
<circle clip-path="url(#clip682)" cx="962.537" cy="933.571" r="10.8" fill="#c271d2" fill-rule="evenodd" fill-opacity="1" stroke="#000000" stroke-opacity="1" stroke-width="3.2"></circle>
<circle clip-path="url(#clip682)" cx="1156.28" cy="864.304" r="10.8" fill="#c271d2" fill-rule="evenodd" fill-opacity="1" stroke="#000000" stroke-opacity="1" stroke-width="3.2"></circle>
<circle clip-path="url(#clip682)" cx="1419.17" cy="769.659" r="10.8" fill="#c271d2" fill-rule="evenodd" fill-opacity="1" stroke="#000000" stroke-opacity="1" stroke-width="3.2"></circle>
<circle clip-path="url(#clip682)" cx="1682.06" cy="652.934" r="10.8" fill="#c271d2" fill-rule="evenodd" fill-opacity="1" stroke="#000000" stroke-opacity="1" stroke-width="3.2"></circle>
<circle clip-path="url(#clip682)" cx="2029.58" cy="544.128" r="10.8" fill="#c271d2" fill-rule="evenodd" fill-opacity="1" stroke="#000000" stroke-opacity="1" stroke-width="3.2"></circle>
<circle clip-path="url(#clip682)" cx="2292.47" cy="445.225" r="10.8" fill="#c271d2" fill-rule="evenodd" fill-opacity="1" stroke="#000000" stroke-opacity="1" stroke-width="3.2"></circle>
<polyline clip-path="url(#clip682)" style="stroke:#ac8d18; stroke-linecap:round; stroke-linejoin:round; stroke-width:4; stroke-opacity:1; fill:none" stroke-dasharray="16, 10" points="282.975,1374.46 545.866,1260.82 808.756,1188.51 962.537,1140.17 1156.28,1059.01 1419.17,946.209 1682.06,832.106 "></polyline>
<circle clip-path="url(#clip682)" cx="282.975" cy="1374.46" r="10.8" fill="#ac8d18" fill-rule="evenodd" fill-opacity="1" stroke="#000000" stroke-opacity="1" stroke-width="3.2"></circle>
<circle clip-path="url(#clip682)" cx="545.866" cy="1260.82" r="10.8" fill="#ac8d18" fill-rule="evenodd" fill-opacity="1" stroke="#000000" stroke-opacity="1" stroke-width="3.2"></circle>
<circle clip-path="url(#clip682)" cx="808.756" cy="1188.51" r="10.8" fill="#ac8d18" fill-rule="evenodd" fill-opacity="1" stroke="#000000" stroke-opacity="1" stroke-width="3.2"></circle>
<circle clip-path="url(#clip682)" cx="962.537" cy="1140.17" r="10.8" fill="#ac8d18" fill-rule="evenodd" fill-opacity="1" stroke="#000000" stroke-opacity="1" stroke-width="3.2"></circle>
<circle clip-path="url(#clip682)" cx="1156.28" cy="1059.01" r="10.8" fill="#ac8d18" fill-rule="evenodd" fill-opacity="1" stroke="#000000" stroke-opacity="1" stroke-width="3.2"></circle>
<circle clip-path="url(#clip682)" cx="1419.17" cy="946.209" r="10.8" fill="#ac8d18" fill-rule="evenodd" fill-opacity="1" stroke="#000000" stroke-opacity="1" stroke-width="3.2"></circle>
<circle clip-path="url(#clip682)" cx="1682.06" cy="832.106" r="10.8" fill="#ac8d18" fill-rule="evenodd" fill-opacity="1" stroke="#000000" stroke-opacity="1" stroke-width="3.2"></circle>
<polyline clip-path="url(#clip682)" style="stroke:#00a9ad; stroke-linecap:round; stroke-linejoin:round; stroke-width:4; stroke-opacity:1; fill:none" stroke-dasharray="16, 10" points="282.975,1355.91 545.866,1198.06 808.756,1049.32 962.537,942.237 1156.28,778.753 1419.17,582.454 "></polyline>
<circle clip-path="url(#clip682)" cx="282.975" cy="1355.91" r="10.8" fill="#00a9ad" fill-rule="evenodd" fill-opacity="1" stroke="#000000" stroke-opacity="1" stroke-width="3.2"></circle>
<circle clip-path="url(#clip682)" cx="545.866" cy="1198.06" r="10.8" fill="#00a9ad" fill-rule="evenodd" fill-opacity="1" stroke="#000000" stroke-opacity="1" stroke-width="3.2"></circle>
<circle clip-path="url(#clip682)" cx="808.756" cy="1049.32" r="10.8" fill="#00a9ad" fill-rule="evenodd" fill-opacity="1" stroke="#000000" stroke-opacity="1" stroke-width="3.2"></circle>
<circle clip-path="url(#clip682)" cx="962.537" cy="942.237" r="10.8" fill="#00a9ad" fill-rule="evenodd" fill-opacity="1" stroke="#000000" stroke-opacity="1" stroke-width="3.2"></circle>
<circle clip-path="url(#clip682)" cx="1156.28" cy="778.753" r="10.8" fill="#00a9ad" fill-rule="evenodd" fill-opacity="1" stroke="#000000" stroke-opacity="1" stroke-width="3.2"></circle>
<circle clip-path="url(#clip682)" cx="1419.17" cy="582.454" r="10.8" fill="#00a9ad" fill-rule="evenodd" fill-opacity="1" stroke="#000000" stroke-opacity="1" stroke-width="3.2"></circle>
<path clip-path="url(#clip680)" d="M293.693 529.266 L1024.52 529.266 L1024.52 166.386 L293.693 166.386  Z" fill="#ffffff" fill-rule="evenodd" fill-opacity="1"></path>
<polyline clip-path="url(#clip680)" style="stroke:#000000; stroke-linecap:round; stroke-linejoin:round; stroke-width:4; stroke-opacity:1; fill:none" points="293.693,529.266 1024.52,529.266 1024.52,166.386 293.693,166.386 293.693,529.266 "></polyline>
<polyline clip-path="url(#clip680)" style="stroke:#009af9; stroke-linecap:round; stroke-linejoin:round; stroke-width:4; stroke-opacity:1; fill:none" points="317.36,218.226 459.364,218.226 "></polyline>
<circle clip-path="url(#clip680)" cx="388.362" cy="218.226" r="19.7228" fill="#009af9" fill-rule="evenodd" fill-opacity="1" stroke="#000000" stroke-opacity="1" stroke-width="5.85143"></circle>
<path clip-path="url(#clip680)" d="M483.032 200.946 L487.708 200.946 L487.708 215.113 L504.698 215.113 L504.698 200.946 L509.374 200.946 L509.374 235.506 L504.698 235.506 L504.698 219.048 L487.708 219.048 L487.708 235.506 L483.032 235.506 L483.032 200.946 Z" fill="#000000" fill-rule="nonzero" fill-opacity="1"></path><path clip-path="url(#clip680)" d="M530.277 222.474 Q525.115 222.474 523.124 223.654 Q521.133 224.835 521.133 227.682 Q521.133 229.951 522.615 231.293 Q524.119 232.613 526.689 232.613 Q530.23 232.613 532.36 230.113 Q534.513 227.59 534.513 223.423 L534.513 222.474 L530.277 222.474 M538.772 220.715 L538.772 235.506 L534.513 235.506 L534.513 231.571 Q533.055 233.932 530.879 235.066 Q528.703 236.178 525.555 236.178 Q521.573 236.178 519.212 233.955 Q516.874 231.71 516.874 227.96 Q516.874 223.585 519.791 221.363 Q522.731 219.141 528.541 219.141 L534.513 219.141 L534.513 218.724 Q534.513 215.784 532.568 214.187 Q530.647 212.567 527.152 212.567 Q524.93 212.567 522.823 213.099 Q520.717 213.631 518.772 214.696 L518.772 210.761 Q521.11 209.858 523.309 209.418 Q525.508 208.955 527.592 208.955 Q533.217 208.955 535.994 211.872 Q538.772 214.789 538.772 220.715 Z" fill="#000000" fill-rule="nonzero" fill-opacity="1"></path><path clip-path="url(#clip680)" d="M569.096 219.858 L569.096 235.506 L564.837 235.506 L564.837 219.997 Q564.837 216.317 563.402 214.488 Q561.966 212.659 559.096 212.659 Q555.647 212.659 553.656 214.858 Q551.666 217.057 551.666 220.854 L551.666 235.506 L547.383 235.506 L547.383 209.58 L551.666 209.58 L551.666 213.608 Q553.193 211.27 555.254 210.113 Q557.337 208.955 560.045 208.955 Q564.513 208.955 566.804 211.733 Q569.096 214.488 569.096 219.858 Z" fill="#000000" fill-rule="nonzero" fill-opacity="1"></path><path clip-path="url(#clip680)" d="M594.651 213.516 L594.651 199.488 L598.911 199.488 L598.911 235.506 L594.651 235.506 L594.651 231.617 Q593.309 233.932 591.249 235.066 Q589.212 236.178 586.341 236.178 Q581.642 236.178 578.679 232.428 Q575.74 228.678 575.74 222.567 Q575.74 216.455 578.679 212.705 Q581.642 208.955 586.341 208.955 Q589.212 208.955 591.249 210.09 Q593.309 211.201 594.651 213.516 M580.138 222.567 Q580.138 227.266 582.059 229.951 Q584.003 232.613 587.383 232.613 Q590.763 232.613 592.707 229.951 Q594.651 227.266 594.651 222.567 Q594.651 217.867 592.707 215.205 Q590.763 212.52 587.383 212.52 Q584.003 212.52 582.059 215.205 Q580.138 217.867 580.138 222.567 Z" fill="#000000" fill-rule="nonzero" fill-opacity="1"></path><path clip-path="url(#clip680)" d="M605.531 220.622 L618.008 220.622 L618.008 224.418 L605.531 224.418 L605.531 220.622 Z" fill="#000000" fill-rule="nonzero" fill-opacity="1"></path><path clip-path="url(#clip680)" d="M650.855 203.608 L650.855 208.539 Q648.494 206.34 645.809 205.252 Q643.147 204.164 640.137 204.164 Q634.211 204.164 631.063 207.798 Q627.915 211.409 627.915 218.261 Q627.915 225.09 631.063 228.724 Q634.211 232.335 640.137 232.335 Q643.147 232.335 645.809 231.247 Q648.494 230.159 650.855 227.96 L650.855 232.844 Q648.401 234.511 645.647 235.344 Q642.915 236.178 639.86 236.178 Q632.012 236.178 627.498 231.386 Q622.985 226.571 622.985 218.261 Q622.985 209.928 627.498 205.136 Q632.012 200.321 639.86 200.321 Q642.961 200.321 645.693 201.155 Q648.447 201.965 650.855 203.608 Z" fill="#000000" fill-rule="nonzero" fill-opacity="1"></path><path clip-path="url(#clip680)" d="M672.915 213.562 Q672.197 213.145 671.341 212.96 Q670.508 212.752 669.489 212.752 Q665.878 212.752 663.933 215.113 Q662.012 217.451 662.012 221.849 L662.012 235.506 L657.73 235.506 L657.73 209.58 L662.012 209.58 L662.012 213.608 Q663.355 211.247 665.508 210.113 Q667.66 208.955 670.739 208.955 Q671.179 208.955 671.711 209.025 Q672.244 209.071 672.892 209.187 L672.915 213.562 Z" fill="#000000" fill-rule="nonzero" fill-opacity="1"></path><path clip-path="url(#clip680)" d="M689.165 222.474 Q684.003 222.474 682.012 223.654 Q680.021 224.835 680.021 227.682 Q680.021 229.951 681.503 231.293 Q683.007 232.613 685.577 232.613 Q689.119 232.613 691.248 230.113 Q693.401 227.59 693.401 223.423 L693.401 222.474 L689.165 222.474 M697.66 220.715 L697.66 235.506 L693.401 235.506 L693.401 231.571 Q691.943 233.932 689.767 235.066 Q687.591 236.178 684.443 236.178 Q680.461 236.178 678.1 233.955 Q675.762 231.71 675.762 227.96 Q675.762 223.585 678.679 221.363 Q681.619 219.141 687.429 219.141 L693.401 219.141 L693.401 218.724 Q693.401 215.784 691.456 214.187 Q689.535 212.567 686.04 212.567 Q683.818 212.567 681.711 213.099 Q679.605 213.631 677.66 214.696 L677.66 210.761 Q679.998 209.858 682.197 209.418 Q684.396 208.955 686.48 208.955 Q692.105 208.955 694.882 211.872 Q697.66 214.789 697.66 220.715 Z" fill="#000000" fill-rule="nonzero" fill-opacity="1"></path><path clip-path="url(#clip680)" d="M719.558 199.488 L719.558 203.03 L715.484 203.03 Q713.192 203.03 712.29 203.956 Q711.41 204.881 711.41 207.289 L711.41 209.58 L718.424 209.58 L718.424 212.891 L711.41 212.891 L711.41 235.506 L707.128 235.506 L707.128 212.891 L703.054 212.891 L703.054 209.58 L707.128 209.58 L707.128 207.775 Q707.128 203.446 709.142 201.479 Q711.155 199.488 715.53 199.488 L719.558 199.488 Z" fill="#000000" fill-rule="nonzero" fill-opacity="1"></path><path clip-path="url(#clip680)" d="M726.503 202.219 L726.503 209.58 L735.276 209.58 L735.276 212.891 L726.503 212.891 L726.503 226.965 Q726.503 230.136 727.359 231.039 Q728.239 231.941 730.901 231.941 L735.276 231.941 L735.276 235.506 L730.901 235.506 Q725.97 235.506 724.095 233.678 Q722.22 231.826 722.22 226.965 L722.22 212.891 L719.095 212.891 L719.095 209.58 L722.22 209.58 L722.22 202.219 L726.503 202.219 Z" fill="#000000" fill-rule="nonzero" fill-opacity="1"></path><path clip-path="url(#clip680)" d="M763.053 221.479 L763.053 223.562 L743.47 223.562 Q743.748 227.96 746.109 230.275 Q748.493 232.566 752.729 232.566 Q755.183 232.566 757.475 231.965 Q759.789 231.363 762.058 230.159 L762.058 234.187 Q759.766 235.159 757.359 235.668 Q754.952 236.178 752.475 236.178 Q746.271 236.178 742.637 232.566 Q739.026 228.955 739.026 222.798 Q739.026 216.432 742.452 212.705 Q745.901 208.955 751.734 208.955 Q756.965 208.955 759.998 212.335 Q763.053 215.692 763.053 221.479 M758.794 220.229 Q758.748 216.733 756.827 214.65 Q754.928 212.567 751.78 212.567 Q748.215 212.567 746.063 214.58 Q743.933 216.594 743.609 220.252 L758.794 220.229 Z" fill="#000000" fill-rule="nonzero" fill-opacity="1"></path><path clip-path="url(#clip680)" d="M787.104 213.516 L787.104 199.488 L791.363 199.488 L791.363 235.506 L787.104 235.506 L787.104 231.617 Q785.762 233.932 783.701 235.066 Q781.664 236.178 778.794 236.178 Q774.095 236.178 771.132 232.428 Q768.192 228.678 768.192 222.567 Q768.192 216.455 771.132 212.705 Q774.095 208.955 778.794 208.955 Q781.664 208.955 783.701 210.09 Q785.762 211.201 787.104 213.516 M772.59 222.567 Q772.59 227.266 774.512 229.951 Q776.456 232.613 779.836 232.613 Q783.215 232.613 785.16 229.951 Q787.104 227.266 787.104 222.567 Q787.104 217.867 785.16 215.205 Q783.215 212.52 779.836 212.52 Q776.456 212.52 774.512 215.205 Q772.59 217.867 772.59 222.567 Z" fill="#000000" fill-rule="nonzero" fill-opacity="1"></path><path clip-path="url(#clip680)" d="M825.437 199.534 Q822.335 204.858 820.831 210.067 Q819.326 215.275 819.326 220.622 Q819.326 225.969 820.831 231.224 Q822.359 236.455 825.437 241.756 L821.734 241.756 Q818.261 236.316 816.525 231.062 Q814.812 225.807 814.812 220.622 Q814.812 215.46 816.525 210.229 Q818.238 204.997 821.734 199.534 L825.437 199.534 Z" fill="#000000" fill-rule="nonzero" fill-opacity="1"></path><path clip-path="url(#clip680)" d="M850.229 210.344 L850.229 214.372 Q848.423 213.446 846.479 212.983 Q844.534 212.52 842.451 212.52 Q839.28 212.52 837.683 213.493 Q836.108 214.465 836.108 216.409 Q836.108 217.891 837.243 218.747 Q838.377 219.58 841.803 220.344 L843.261 220.668 Q847.798 221.641 849.696 223.423 Q851.618 225.182 851.618 228.354 Q851.618 231.965 848.747 234.071 Q845.9 236.178 840.9 236.178 Q838.817 236.178 836.548 235.761 Q834.303 235.367 831.803 234.557 L831.803 230.159 Q834.164 231.386 836.456 232.011 Q838.747 232.613 840.993 232.613 Q844.002 232.613 845.622 231.594 Q847.243 230.553 847.243 228.678 Q847.243 226.942 846.062 226.016 Q844.905 225.09 840.946 224.233 L839.465 223.886 Q835.507 223.053 833.747 221.34 Q831.988 219.604 831.988 216.594 Q831.988 212.937 834.581 210.946 Q837.173 208.955 841.942 208.955 Q844.303 208.955 846.386 209.303 Q848.47 209.65 850.229 210.344 Z" fill="#000000" fill-rule="nonzero" fill-opacity="1"></path><path clip-path="url(#clip680)" d="M862.52 231.617 L862.52 245.367 L858.238 245.367 L858.238 209.58 L862.52 209.58 L862.52 213.516 Q863.863 211.201 865.9 210.09 Q867.96 208.955 870.807 208.955 Q875.53 208.955 878.469 212.705 Q881.432 216.455 881.432 222.567 Q881.432 228.678 878.469 232.428 Q875.53 236.178 870.807 236.178 Q867.96 236.178 865.9 235.066 Q863.863 233.932 862.52 231.617 M877.011 222.567 Q877.011 217.867 875.067 215.205 Q873.145 212.52 869.766 212.52 Q866.386 212.52 864.442 215.205 Q862.52 217.867 862.52 222.567 Q862.52 227.266 864.442 229.951 Q866.386 232.613 869.766 232.613 Q873.145 232.613 875.067 229.951 Q877.011 227.266 877.011 222.567 Z" fill="#000000" fill-rule="nonzero" fill-opacity="1"></path><path clip-path="url(#clip680)" d="M900.275 222.474 Q895.113 222.474 893.122 223.654 Q891.131 224.835 891.131 227.682 Q891.131 229.951 892.613 231.293 Q894.117 232.613 896.687 232.613 Q900.229 232.613 902.358 230.113 Q904.511 227.59 904.511 223.423 L904.511 222.474 L900.275 222.474 M908.77 220.715 L908.77 235.506 L904.511 235.506 L904.511 231.571 Q903.053 233.932 900.877 235.066 Q898.701 236.178 895.553 236.178 Q891.571 236.178 889.21 233.955 Q886.872 231.71 886.872 227.96 Q886.872 223.585 889.789 221.363 Q892.729 219.141 898.539 219.141 L904.511 219.141 L904.511 218.724 Q904.511 215.784 902.566 214.187 Q900.645 212.567 897.15 212.567 Q894.928 212.567 892.821 213.099 Q890.715 213.631 888.77 214.696 L888.77 210.761 Q891.108 209.858 893.307 209.418 Q895.506 208.955 897.59 208.955 Q903.215 208.955 905.992 211.872 Q908.77 214.789 908.77 220.715 Z" fill="#000000" fill-rule="nonzero" fill-opacity="1"></path><path clip-path="url(#clip680)" d="M932.566 213.562 Q931.849 213.145 930.992 212.96 Q930.159 212.752 929.14 212.752 Q925.529 212.752 923.585 215.113 Q921.664 217.451 921.664 221.849 L921.664 235.506 L917.381 235.506 L917.381 209.58 L921.664 209.58 L921.664 213.608 Q923.006 211.247 925.159 210.113 Q927.312 208.955 930.39 208.955 Q930.83 208.955 931.363 209.025 Q931.895 209.071 932.543 209.187 L932.566 213.562 Z" fill="#000000" fill-rule="nonzero" fill-opacity="1"></path><path clip-path="url(#clip680)" d="M953.562 210.344 L953.562 214.372 Q951.756 213.446 949.812 212.983 Q947.867 212.52 945.784 212.52 Q942.613 212.52 941.015 213.493 Q939.441 214.465 939.441 216.409 Q939.441 217.891 940.576 218.747 Q941.71 219.58 945.136 220.344 L946.594 220.668 Q951.131 221.641 953.029 223.423 Q954.95 225.182 954.95 228.354 Q954.95 231.965 952.08 234.071 Q949.233 236.178 944.233 236.178 Q942.15 236.178 939.881 235.761 Q937.636 235.367 935.136 234.557 L935.136 230.159 Q937.497 231.386 939.788 232.011 Q942.08 232.613 944.325 232.613 Q947.335 232.613 948.955 231.594 Q950.575 230.553 950.575 228.678 Q950.575 226.942 949.395 226.016 Q948.238 225.09 944.279 224.233 L942.798 223.886 Q938.839 223.053 937.08 221.34 Q935.321 219.604 935.321 216.594 Q935.321 212.937 937.913 210.946 Q940.506 208.955 945.275 208.955 Q947.636 208.955 949.719 209.303 Q951.802 209.65 953.562 210.344 Z" fill="#000000" fill-rule="nonzero" fill-opacity="1"></path><path clip-path="url(#clip680)" d="M983.909 221.479 L983.909 223.562 L964.325 223.562 Q964.603 227.96 966.964 230.275 Q969.349 232.566 973.585 232.566 Q976.038 232.566 978.33 231.965 Q980.645 231.363 982.913 230.159 L982.913 234.187 Q980.622 235.159 978.214 235.668 Q975.807 236.178 973.33 236.178 Q967.126 236.178 963.492 232.566 Q959.881 228.955 959.881 222.798 Q959.881 216.432 963.307 212.705 Q966.756 208.955 972.589 208.955 Q977.821 208.955 980.853 212.335 Q983.909 215.692 983.909 221.479 M979.649 220.229 Q979.603 216.733 977.682 214.65 Q975.784 212.567 972.636 212.567 Q969.071 212.567 966.918 214.58 Q964.788 216.594 964.464 220.252 L979.649 220.229 Z" fill="#000000" fill-rule="nonzero" fill-opacity="1"></path><path clip-path="url(#clip680)" d="M990.228 199.534 L993.932 199.534 Q997.404 204.997 999.117 210.229 Q1000.85 215.46 1000.85 220.622 Q1000.85 225.807 999.117 231.062 Q997.404 236.316 993.932 241.756 L990.228 241.756 Q993.307 236.455 994.811 231.224 Q996.339 225.969 996.339 220.622 Q996.339 215.275 994.811 210.067 Q993.307 204.858 990.228 199.534 Z" fill="#000000" fill-rule="nonzero" fill-opacity="1"></path><polyline clip-path="url(#clip680)" style="stroke:#e26f46; stroke-linecap:round; stroke-linejoin:round; stroke-width:4; stroke-opacity:1; fill:none" points="317.36,270.066 459.364,270.066 "></polyline>
<circle clip-path="url(#clip680)" cx="388.362" cy="270.066" r="19.7228" fill="#e26f46" fill-rule="evenodd" fill-opacity="1" stroke="#000000" stroke-opacity="1" stroke-width="5.85143"></circle>
<path clip-path="url(#clip680)" d="M483.032 252.786 L487.708 252.786 L487.708 266.953 L504.698 266.953 L504.698 252.786 L509.374 252.786 L509.374 287.346 L504.698 287.346 L504.698 270.888 L487.708 270.888 L487.708 287.346 L483.032 287.346 L483.032 252.786 Z" fill="#000000" fill-rule="nonzero" fill-opacity="1"></path><path clip-path="url(#clip680)" d="M530.277 274.314 Q525.115 274.314 523.124 275.494 Q521.133 276.675 521.133 279.522 Q521.133 281.791 522.615 283.133 Q524.119 284.453 526.689 284.453 Q530.23 284.453 532.36 281.953 Q534.513 279.43 534.513 275.263 L534.513 274.314 L530.277 274.314 M538.772 272.555 L538.772 287.346 L534.513 287.346 L534.513 283.411 Q533.055 285.772 530.879 286.906 Q528.703 288.018 525.555 288.018 Q521.573 288.018 519.212 285.795 Q516.874 283.55 516.874 279.8 Q516.874 275.425 519.791 273.203 Q522.731 270.981 528.541 270.981 L534.513 270.981 L534.513 270.564 Q534.513 267.624 532.568 266.027 Q530.647 264.407 527.152 264.407 Q524.93 264.407 522.823 264.939 Q520.717 265.471 518.772 266.536 L518.772 262.601 Q521.11 261.698 523.309 261.258 Q525.508 260.795 527.592 260.795 Q533.217 260.795 535.994 263.712 Q538.772 266.629 538.772 272.555 Z" fill="#000000" fill-rule="nonzero" fill-opacity="1"></path><path clip-path="url(#clip680)" d="M569.096 271.698 L569.096 287.346 L564.837 287.346 L564.837 271.837 Q564.837 268.157 563.402 266.328 Q561.966 264.499 559.096 264.499 Q555.647 264.499 553.656 266.698 Q551.666 268.897 551.666 272.694 L551.666 287.346 L547.383 287.346 L547.383 261.42 L551.666 261.42 L551.666 265.448 Q553.193 263.11 555.254 261.953 Q557.337 260.795 560.045 260.795 Q564.513 260.795 566.804 263.573 Q569.096 266.328 569.096 271.698 Z" fill="#000000" fill-rule="nonzero" fill-opacity="1"></path><path clip-path="url(#clip680)" d="M594.651 265.356 L594.651 251.328 L598.911 251.328 L598.911 287.346 L594.651 287.346 L594.651 283.457 Q593.309 285.772 591.249 286.906 Q589.212 288.018 586.341 288.018 Q581.642 288.018 578.679 284.268 Q575.74 280.518 575.74 274.407 Q575.74 268.295 578.679 264.545 Q581.642 260.795 586.341 260.795 Q589.212 260.795 591.249 261.93 Q593.309 263.041 594.651 265.356 M580.138 274.407 Q580.138 279.106 582.059 281.791 Q584.003 284.453 587.383 284.453 Q590.763 284.453 592.707 281.791 Q594.651 279.106 594.651 274.407 Q594.651 269.707 592.707 267.045 Q590.763 264.36 587.383 264.36 Q584.003 264.36 582.059 267.045 Q580.138 269.707 580.138 274.407 Z" fill="#000000" fill-rule="nonzero" fill-opacity="1"></path><path clip-path="url(#clip680)" d="M605.531 272.462 L618.008 272.462 L618.008 276.258 L605.531 276.258 L605.531 272.462 Z" fill="#000000" fill-rule="nonzero" fill-opacity="1"></path><path clip-path="url(#clip680)" d="M650.855 255.448 L650.855 260.379 Q648.494 258.18 645.809 257.092 Q643.147 256.004 640.137 256.004 Q634.211 256.004 631.063 259.638 Q627.915 263.249 627.915 270.101 Q627.915 276.93 631.063 280.564 Q634.211 284.175 640.137 284.175 Q643.147 284.175 645.809 283.087 Q648.494 281.999 650.855 279.8 L650.855 284.684 Q648.401 286.351 645.647 287.184 Q642.915 288.018 639.86 288.018 Q632.012 288.018 627.498 283.226 Q622.985 278.411 622.985 270.101 Q622.985 261.768 627.498 256.976 Q632.012 252.161 639.86 252.161 Q642.961 252.161 645.693 252.995 Q648.447 253.805 650.855 255.448 Z" fill="#000000" fill-rule="nonzero" fill-opacity="1"></path><path clip-path="url(#clip680)" d="M672.915 265.402 Q672.197 264.985 671.341 264.8 Q670.508 264.592 669.489 264.592 Q665.878 264.592 663.933 266.953 Q662.012 269.291 662.012 273.689 L662.012 287.346 L657.73 287.346 L657.73 261.42 L662.012 261.42 L662.012 265.448 Q663.355 263.087 665.508 261.953 Q667.66 260.795 670.739 260.795 Q671.179 260.795 671.711 260.865 Q672.244 260.911 672.892 261.027 L672.915 265.402 Z" fill="#000000" fill-rule="nonzero" fill-opacity="1"></path><path clip-path="url(#clip680)" d="M689.165 274.314 Q684.003 274.314 682.012 275.494 Q680.021 276.675 680.021 279.522 Q680.021 281.791 681.503 283.133 Q683.007 284.453 685.577 284.453 Q689.119 284.453 691.248 281.953 Q693.401 279.43 693.401 275.263 L693.401 274.314 L689.165 274.314 M697.66 272.555 L697.66 287.346 L693.401 287.346 L693.401 283.411 Q691.943 285.772 689.767 286.906 Q687.591 288.018 684.443 288.018 Q680.461 288.018 678.1 285.795 Q675.762 283.55 675.762 279.8 Q675.762 275.425 678.679 273.203 Q681.619 270.981 687.429 270.981 L693.401 270.981 L693.401 270.564 Q693.401 267.624 691.456 266.027 Q689.535 264.407 686.04 264.407 Q683.818 264.407 681.711 264.939 Q679.605 265.471 677.66 266.536 L677.66 262.601 Q679.998 261.698 682.197 261.258 Q684.396 260.795 686.48 260.795 Q692.105 260.795 694.882 263.712 Q697.66 266.629 697.66 272.555 Z" fill="#000000" fill-rule="nonzero" fill-opacity="1"></path><path clip-path="url(#clip680)" d="M719.558 251.328 L719.558 254.87 L715.484 254.87 Q713.192 254.87 712.29 255.796 Q711.41 256.721 711.41 259.129 L711.41 261.42 L718.424 261.42 L718.424 264.731 L711.41 264.731 L711.41 287.346 L707.128 287.346 L707.128 264.731 L703.054 264.731 L703.054 261.42 L707.128 261.42 L707.128 259.615 Q707.128 255.286 709.142 253.319 Q711.155 251.328 715.53 251.328 L719.558 251.328 Z" fill="#000000" fill-rule="nonzero" fill-opacity="1"></path><path clip-path="url(#clip680)" d="M726.503 254.059 L726.503 261.42 L735.276 261.42 L735.276 264.731 L726.503 264.731 L726.503 278.805 Q726.503 281.976 727.359 282.879 Q728.239 283.781 730.901 283.781 L735.276 283.781 L735.276 287.346 L730.901 287.346 Q725.97 287.346 724.095 285.518 Q722.22 283.666 722.22 278.805 L722.22 264.731 L719.095 264.731 L719.095 261.42 L722.22 261.42 L722.22 254.059 L726.503 254.059 Z" fill="#000000" fill-rule="nonzero" fill-opacity="1"></path><path clip-path="url(#clip680)" d="M763.053 273.319 L763.053 275.402 L743.47 275.402 Q743.748 279.8 746.109 282.115 Q748.493 284.406 752.729 284.406 Q755.183 284.406 757.475 283.805 Q759.789 283.203 762.058 281.999 L762.058 286.027 Q759.766 286.999 757.359 287.508 Q754.952 288.018 752.475 288.018 Q746.271 288.018 742.637 284.406 Q739.026 280.795 739.026 274.638 Q739.026 268.272 742.452 264.545 Q745.901 260.795 751.734 260.795 Q756.965 260.795 759.998 264.175 Q763.053 267.532 763.053 273.319 M758.794 272.069 Q758.748 268.573 756.827 266.49 Q754.928 264.407 751.78 264.407 Q748.215 264.407 746.063 266.42 Q743.933 268.434 743.609 272.092 L758.794 272.069 Z" fill="#000000" fill-rule="nonzero" fill-opacity="1"></path><path clip-path="url(#clip680)" d="M787.104 265.356 L787.104 251.328 L791.363 251.328 L791.363 287.346 L787.104 287.346 L787.104 283.457 Q785.762 285.772 783.701 286.906 Q781.664 288.018 778.794 288.018 Q774.095 288.018 771.132 284.268 Q768.192 280.518 768.192 274.407 Q768.192 268.295 771.132 264.545 Q774.095 260.795 778.794 260.795 Q781.664 260.795 783.701 261.93 Q785.762 263.041 787.104 265.356 M772.59 274.407 Q772.59 279.106 774.512 281.791 Q776.456 284.453 779.836 284.453 Q783.215 284.453 785.16 281.791 Q787.104 279.106 787.104 274.407 Q787.104 269.707 785.16 267.045 Q783.215 264.36 779.836 264.36 Q776.456 264.36 774.512 267.045 Q772.59 269.707 772.59 274.407 Z" fill="#000000" fill-rule="nonzero" fill-opacity="1"></path><path clip-path="url(#clip680)" d="M825.437 251.374 Q822.335 256.698 820.831 261.907 Q819.326 267.115 819.326 272.462 Q819.326 277.809 820.831 283.064 Q822.359 288.295 825.437 293.596 L821.734 293.596 Q818.261 288.156 816.525 282.902 Q814.812 277.647 814.812 272.462 Q814.812 267.3 816.525 262.069 Q818.238 256.837 821.734 251.374 L825.437 251.374 Z" fill="#000000" fill-rule="nonzero" fill-opacity="1"></path><path clip-path="url(#clip680)" d="M850.761 265.356 L850.761 251.328 L855.02 251.328 L855.02 287.346 L850.761 287.346 L850.761 283.457 Q849.419 285.772 847.358 286.906 Q845.321 288.018 842.451 288.018 Q837.752 288.018 834.789 284.268 Q831.849 280.518 831.849 274.407 Q831.849 268.295 834.789 264.545 Q837.752 260.795 842.451 260.795 Q845.321 260.795 847.358 261.93 Q849.419 263.041 850.761 265.356 M836.247 274.407 Q836.247 279.106 838.169 281.791 Q840.113 284.453 843.493 284.453 Q846.872 284.453 848.817 281.791 Q850.761 279.106 850.761 274.407 Q850.761 269.707 848.817 267.045 Q846.872 264.36 843.493 264.36 Q840.113 264.36 838.169 267.045 Q836.247 269.707 836.247 274.407 Z" fill="#000000" fill-rule="nonzero" fill-opacity="1"></path><path clip-path="url(#clip680)" d="M885.969 273.319 L885.969 275.402 L866.386 275.402 Q866.664 279.8 869.025 282.115 Q871.409 284.406 875.645 284.406 Q878.099 284.406 880.391 283.805 Q882.705 283.203 884.974 281.999 L884.974 286.027 Q882.682 286.999 880.275 287.508 Q877.868 288.018 875.391 288.018 Q869.187 288.018 865.553 284.406 Q861.942 280.795 861.942 274.638 Q861.942 268.272 865.368 264.545 Q868.817 260.795 874.65 260.795 Q879.881 260.795 882.914 264.175 Q885.969 267.532 885.969 273.319 M881.71 272.069 Q881.664 268.573 879.743 266.49 Q877.844 264.407 874.696 264.407 Q871.131 264.407 868.979 266.42 Q866.849 268.434 866.525 272.092 L881.71 272.069 Z" fill="#000000" fill-rule="nonzero" fill-opacity="1"></path><path clip-path="url(#clip680)" d="M914.511 271.698 L914.511 287.346 L910.252 287.346 L910.252 271.837 Q910.252 268.157 908.816 266.328 Q907.381 264.499 904.511 264.499 Q901.062 264.499 899.071 266.698 Q897.08 268.897 897.08 272.694 L897.08 287.346 L892.798 287.346 L892.798 261.42 L897.08 261.42 L897.08 265.448 Q898.608 263.11 900.668 261.953 Q902.752 260.795 905.46 260.795 Q909.928 260.795 912.219 263.573 Q914.511 266.328 914.511 271.698 Z" fill="#000000" fill-rule="nonzero" fill-opacity="1"></path><path clip-path="url(#clip680)" d="M939.534 262.184 L939.534 266.212 Q937.728 265.286 935.784 264.823 Q933.839 264.36 931.756 264.36 Q928.585 264.36 926.988 265.333 Q925.414 266.305 925.414 268.249 Q925.414 269.731 926.548 270.587 Q927.682 271.42 931.108 272.184 L932.566 272.508 Q937.103 273.481 939.001 275.263 Q940.923 277.022 940.923 280.194 Q940.923 283.805 938.052 285.911 Q935.205 288.018 930.205 288.018 Q928.122 288.018 925.853 287.601 Q923.608 287.207 921.108 286.397 L921.108 281.999 Q923.469 283.226 925.761 283.851 Q928.052 284.453 930.298 284.453 Q933.307 284.453 934.927 283.434 Q936.548 282.393 936.548 280.518 Q936.548 278.782 935.367 277.856 Q934.21 276.93 930.251 276.073 L928.77 275.726 Q924.812 274.893 923.052 273.18 Q921.293 271.444 921.293 268.434 Q921.293 264.777 923.886 262.786 Q926.478 260.795 931.247 260.795 Q933.608 260.795 935.691 261.143 Q937.775 261.49 939.534 262.184 Z" fill="#000000" fill-rule="nonzero" fill-opacity="1"></path><path clip-path="url(#clip680)" d="M969.881 273.319 L969.881 275.402 L950.298 275.402 Q950.575 279.8 952.937 282.115 Q955.321 284.406 959.557 284.406 Q962.011 284.406 964.302 283.805 Q966.617 283.203 968.886 281.999 L968.886 286.027 Q966.594 286.999 964.187 287.508 Q961.779 288.018 959.302 288.018 Q953.099 288.018 949.464 284.406 Q945.853 280.795 945.853 274.638 Q945.853 268.272 949.279 264.545 Q952.728 260.795 958.562 260.795 Q963.793 260.795 966.825 264.175 Q969.881 267.532 969.881 273.319 M965.622 272.069 Q965.575 268.573 963.654 266.49 Q961.756 264.407 958.608 264.407 Q955.043 264.407 952.89 266.42 Q950.761 268.434 950.437 272.092 L965.622 272.069 Z" fill="#000000" fill-rule="nonzero" fill-opacity="1"></path><path clip-path="url(#clip680)" d="M976.2 251.374 L979.904 251.374 Q983.376 256.837 985.089 262.069 Q986.825 267.3 986.825 272.462 Q986.825 277.647 985.089 282.902 Q983.376 288.156 979.904 293.596 L976.2 293.596 Q979.279 288.295 980.784 283.064 Q982.311 277.809 982.311 272.462 Q982.311 267.115 980.784 261.907 Q979.279 256.698 976.2 251.374 Z" fill="#000000" fill-rule="nonzero" fill-opacity="1"></path><polyline clip-path="url(#clip680)" style="stroke:#3da44d; stroke-linecap:round; stroke-linejoin:round; stroke-width:4; stroke-opacity:1; fill:none" points="317.36,321.906 459.364,321.906 "></polyline>
<circle clip-path="url(#clip680)" cx="388.362" cy="321.906" r="19.7228" fill="#3da44d" fill-rule="evenodd" fill-opacity="1" stroke="#000000" stroke-opacity="1" stroke-width="5.85143"></circle>
<path clip-path="url(#clip680)" d="M483.032 304.626 L489.328 304.626 L504.652 333.538 L504.652 304.626 L509.189 304.626 L509.189 339.186 L502.893 339.186 L487.569 310.274 L487.569 339.186 L483.032 339.186 L483.032 304.626 Z" fill="#000000" fill-rule="nonzero" fill-opacity="1"></path><path clip-path="url(#clip680)" d="M523.17 308.469 L523.17 335.344 L528.818 335.344 Q535.971 335.344 539.281 332.103 Q542.615 328.862 542.615 321.872 Q542.615 314.927 539.281 311.71 Q535.971 308.469 528.818 308.469 L523.17 308.469 M518.494 304.626 L528.101 304.626 Q538.147 304.626 542.846 308.816 Q547.545 312.983 547.545 321.872 Q547.545 330.807 542.823 334.996 Q538.101 339.186 528.101 339.186 L518.494 339.186 L518.494 304.626 Z" fill="#000000" fill-rule="nonzero" fill-opacity="1"></path><polyline clip-path="url(#clip680)" style="stroke:#c271d2; stroke-linecap:round; stroke-linejoin:round; stroke-width:4; stroke-opacity:1; fill:none" points="317.36,373.746 459.364,373.746 "></polyline>
<circle clip-path="url(#clip680)" cx="388.362" cy="373.746" r="19.7228" fill="#c271d2" fill-rule="evenodd" fill-opacity="1" stroke="#000000" stroke-opacity="1" stroke-width="5.85143"></circle>
<path clip-path="url(#clip680)" d="M483.032 356.466 L489.328 356.466 L504.652 385.378 L504.652 356.466 L509.189 356.466 L509.189 391.026 L502.893 391.026 L487.569 362.114 L487.569 391.026 L483.032 391.026 L483.032 356.466 Z" fill="#000000" fill-rule="nonzero" fill-opacity="1"></path><path clip-path="url(#clip680)" d="M523.17 360.309 L523.17 387.184 L528.818 387.184 Q535.971 387.184 539.281 383.943 Q542.615 380.702 542.615 373.712 Q542.615 366.767 539.281 363.55 Q535.971 360.309 528.818 360.309 L523.17 360.309 M518.494 356.466 L528.101 356.466 Q538.147 356.466 542.846 360.656 Q547.545 364.823 547.545 373.712 Q547.545 382.647 542.823 386.836 Q538.101 391.026 528.101 391.026 L518.494 391.026 L518.494 356.466 Z" fill="#000000" fill-rule="nonzero" fill-opacity="1"></path><path clip-path="url(#clip680)" d="M580.114 355.054 Q577.013 360.378 575.508 365.587 Q574.003 370.795 574.003 376.142 Q574.003 381.489 575.508 386.744 Q577.036 391.975 580.114 397.276 L576.411 397.276 Q572.939 391.836 571.202 386.582 Q569.49 381.327 569.49 376.142 Q569.49 370.98 571.202 365.749 Q572.915 360.517 576.411 355.054 L580.114 355.054 Z" fill="#000000" fill-rule="nonzero" fill-opacity="1"></path><path clip-path="url(#clip680)" d="M601.55 378.596 Q601.55 381.906 603.193 383.804 Q604.837 385.679 607.707 385.679 Q610.554 385.679 612.175 383.781 Q613.818 381.883 613.818 378.596 Q613.818 375.355 612.151 373.457 Q610.485 371.536 607.661 371.536 Q604.86 371.536 603.193 373.434 Q601.55 375.332 601.55 378.596 M614.165 385.517 Q612.776 387.299 610.971 388.156 Q609.188 388.989 606.804 388.989 Q602.823 388.989 600.323 386.119 Q597.846 383.225 597.846 378.596 Q597.846 373.966 600.346 371.073 Q602.846 368.179 606.804 368.179 Q609.188 368.179 610.994 369.059 Q612.799 369.915 614.165 371.675 L614.165 368.642 L617.475 368.642 L617.475 385.679 Q620.855 385.17 622.753 382.6 Q624.674 380.008 624.674 375.911 Q624.674 373.434 623.934 371.258 Q623.216 369.082 621.735 367.23 Q619.327 364.198 615.855 362.601 Q612.406 360.98 608.332 360.98 Q605.485 360.98 602.869 361.744 Q600.253 362.485 598.031 363.966 Q594.397 366.327 592.337 370.17 Q590.3 373.989 590.3 378.457 Q590.3 382.137 591.619 385.355 Q592.962 388.573 595.485 391.026 Q597.915 393.434 601.11 394.684 Q604.304 395.957 607.938 395.957 Q610.925 395.957 613.795 394.938 Q616.688 393.943 619.096 392.068 L621.179 394.637 Q618.286 396.883 614.86 398.063 Q611.457 399.267 607.938 399.267 Q603.656 399.267 599.86 397.739 Q596.063 396.235 593.101 393.341 Q590.138 390.448 588.587 386.651 Q587.036 382.832 587.036 378.457 Q587.036 374.244 588.61 370.425 Q590.184 366.605 593.101 363.712 Q596.087 360.772 599.999 359.221 Q603.911 357.647 608.286 357.647 Q613.193 357.647 617.383 359.661 Q621.596 361.675 624.443 365.378 Q626.179 367.647 627.082 370.309 Q628.008 372.971 628.008 375.818 Q628.008 381.906 624.327 385.424 Q620.647 388.943 614.165 389.082 L614.165 385.517 Z" fill="#000000" fill-rule="nonzero" fill-opacity="1"></path><path clip-path="url(#clip680)" d="M635.785 365.1 L640.045 365.1 L640.045 391.026 L635.785 391.026 L635.785 365.1 M635.785 355.008 L640.045 355.008 L640.045 360.401 L635.785 360.401 L635.785 355.008 Z" fill="#000000" fill-rule="nonzero" fill-opacity="1"></path><path clip-path="url(#clip680)" d="M670.508 375.378 L670.508 391.026 L666.248 391.026 L666.248 375.517 Q666.248 371.837 664.813 370.008 Q663.378 368.179 660.508 368.179 Q657.059 368.179 655.068 370.378 Q653.077 372.577 653.077 376.374 L653.077 391.026 L648.795 391.026 L648.795 365.1 L653.077 365.1 L653.077 369.128 Q654.605 366.79 656.665 365.633 Q658.748 364.475 661.457 364.475 Q665.924 364.475 668.216 367.253 Q670.508 370.008 670.508 375.378 Z" fill="#000000" fill-rule="nonzero" fill-opacity="1"></path><path clip-path="url(#clip680)" d="M697.614 378.087 Q697.614 373.387 695.669 370.725 Q693.748 368.04 690.369 368.04 Q686.989 368.04 685.044 370.725 Q683.123 373.387 683.123 378.087 Q683.123 382.786 685.044 385.471 Q686.989 388.133 690.369 388.133 Q693.748 388.133 695.669 385.471 Q697.614 382.786 697.614 378.087 M683.123 369.036 Q684.466 366.721 686.503 365.61 Q688.563 364.475 691.41 364.475 Q696.132 364.475 699.072 368.225 Q702.035 371.975 702.035 378.087 Q702.035 384.198 699.072 387.948 Q696.132 391.698 691.41 391.698 Q688.563 391.698 686.503 390.586 Q684.466 389.452 683.123 387.137 L683.123 391.026 L678.841 391.026 L678.841 355.008 L683.123 355.008 L683.123 369.036 Z" fill="#000000" fill-rule="nonzero" fill-opacity="1"></path><path clip-path="url(#clip680)" d="M719.142 368.087 Q715.716 368.087 713.725 370.772 Q711.734 373.434 711.734 378.087 Q711.734 382.739 713.702 385.424 Q715.692 388.086 719.142 388.086 Q722.544 388.086 724.535 385.401 Q726.526 382.716 726.526 378.087 Q726.526 373.48 724.535 370.795 Q722.544 368.087 719.142 368.087 M719.142 364.475 Q724.697 364.475 727.868 368.087 Q731.04 371.698 731.04 378.087 Q731.04 384.452 727.868 388.086 Q724.697 391.698 719.142 391.698 Q713.563 391.698 710.392 388.086 Q707.243 384.452 707.243 378.087 Q707.243 371.698 710.392 368.087 Q713.563 364.475 719.142 364.475 Z" fill="#000000" fill-rule="nonzero" fill-opacity="1"></path><path clip-path="url(#clip680)" d="M737.66 380.795 L737.66 365.1 L741.919 365.1 L741.919 380.633 Q741.919 384.313 743.354 386.165 Q744.79 387.994 747.66 387.994 Q751.109 387.994 753.1 385.795 Q755.114 383.596 755.114 379.799 L755.114 365.1 L759.373 365.1 L759.373 391.026 L755.114 391.026 L755.114 387.045 Q753.563 389.406 751.502 390.563 Q749.465 391.698 746.757 391.698 Q742.29 391.698 739.975 388.92 Q737.66 386.142 737.66 380.795 M748.377 364.475 L748.377 364.475 Z" fill="#000000" fill-rule="nonzero" fill-opacity="1"></path><path clip-path="url(#clip680)" d="M789.697 375.378 L789.697 391.026 L785.437 391.026 L785.437 375.517 Q785.437 371.837 784.002 370.008 Q782.567 368.179 779.697 368.179 Q776.248 368.179 774.257 370.378 Q772.266 372.577 772.266 376.374 L772.266 391.026 L767.984 391.026 L767.984 365.1 L772.266 365.1 L772.266 369.128 Q773.794 366.79 775.854 365.633 Q777.938 364.475 780.646 364.475 Q785.113 364.475 787.405 367.253 Q789.697 370.008 789.697 375.378 Z" fill="#000000" fill-rule="nonzero" fill-opacity="1"></path><path clip-path="url(#clip680)" d="M815.252 369.036 L815.252 355.008 L819.511 355.008 L819.511 391.026 L815.252 391.026 L815.252 387.137 Q813.91 389.452 811.849 390.586 Q809.812 391.698 806.942 391.698 Q802.243 391.698 799.28 387.948 Q796.34 384.198 796.34 378.087 Q796.34 371.975 799.28 368.225 Q802.243 364.475 806.942 364.475 Q809.812 364.475 811.849 365.61 Q813.91 366.721 815.252 369.036 M800.738 378.087 Q800.738 382.786 802.66 385.471 Q804.604 388.133 807.984 388.133 Q811.363 388.133 813.308 385.471 Q815.252 382.786 815.252 378.087 Q815.252 373.387 813.308 370.725 Q811.363 368.04 807.984 368.04 Q804.604 368.04 802.66 370.725 Q800.738 373.387 800.738 378.087 Z" fill="#000000" fill-rule="nonzero" fill-opacity="1"></path><path clip-path="url(#clip680)" d="M844.812 365.864 L844.812 369.892 Q843.007 368.966 841.062 368.503 Q839.118 368.04 837.034 368.04 Q833.863 368.04 832.266 369.013 Q830.692 369.985 830.692 371.929 Q830.692 373.411 831.826 374.267 Q832.96 375.1 836.386 375.864 L837.845 376.188 Q842.382 377.161 844.28 378.943 Q846.201 380.702 846.201 383.874 Q846.201 387.485 843.331 389.591 Q840.483 391.698 835.483 391.698 Q833.4 391.698 831.132 391.281 Q828.886 390.887 826.386 390.077 L826.386 385.679 Q828.747 386.906 831.039 387.531 Q833.331 388.133 835.576 388.133 Q838.585 388.133 840.206 387.114 Q841.826 386.073 841.826 384.198 Q841.826 382.462 840.645 381.536 Q839.488 380.61 835.53 379.753 L834.048 379.406 Q830.09 378.573 828.331 376.86 Q826.571 375.124 826.571 372.114 Q826.571 368.457 829.164 366.466 Q831.757 364.475 836.525 364.475 Q838.886 364.475 840.97 364.823 Q843.053 365.17 844.812 365.864 Z" fill="#000000" fill-rule="nonzero" fill-opacity="1"></path><path clip-path="url(#clip680)" d="M852.312 355.054 L856.016 355.054 Q859.488 360.517 861.201 365.749 Q862.937 370.98 862.937 376.142 Q862.937 381.327 861.201 386.582 Q859.488 391.836 856.016 397.276 L852.312 397.276 Q855.391 391.975 856.895 386.744 Q858.423 381.489 858.423 376.142 Q858.423 370.795 856.895 365.587 Q855.391 360.378 852.312 355.054 Z" fill="#000000" fill-rule="nonzero" fill-opacity="1"></path><polyline clip-path="url(#clip680)" style="stroke:#ac8d18; stroke-linecap:round; stroke-linejoin:round; stroke-width:4; stroke-opacity:1; fill:none" stroke-dasharray="16, 10" points="317.36,425.586 459.364,425.586 "></polyline>
<circle clip-path="url(#clip680)" cx="388.362" cy="425.586" r="19.7228" fill="#ac8d18" fill-rule="evenodd" fill-opacity="1" stroke="#000000" stroke-opacity="1" stroke-width="5.85143"></circle>
<path clip-path="url(#clip680)" d="M483.032 408.306 L489.999 408.306 L498.819 431.825 L507.684 408.306 L514.652 408.306 L514.652 442.866 L510.092 442.866 L510.092 412.519 L501.18 436.223 L496.481 436.223 L487.569 412.519 L487.569 442.866 L483.032 442.866 L483.032 408.306 Z" fill="#000000" fill-rule="nonzero" fill-opacity="1"></path><path clip-path="url(#clip680)" d="M519.143 408.306 L548.379 408.306 L548.379 412.241 L536.11 412.241 L536.11 442.866 L531.411 442.866 L531.411 412.241 L519.143 412.241 L519.143 408.306 Z" fill="#000000" fill-rule="nonzero" fill-opacity="1"></path><path clip-path="url(#clip680)" d="M552.892 408.306 L557.568 408.306 L557.568 422.913 L573.077 408.306 L579.096 408.306 L561.943 424.417 L580.323 442.866 L574.165 442.866 L557.568 426.223 L557.568 442.866 L552.892 442.866 L552.892 408.306 Z" fill="#000000" fill-rule="nonzero" fill-opacity="1"></path><path clip-path="url(#clip680)" d="M609.096 406.894 Q605.994 412.218 604.489 417.427 Q602.985 422.635 602.985 427.982 Q602.985 433.329 604.489 438.584 Q606.017 443.815 609.096 449.116 L605.392 449.116 Q601.92 443.676 600.184 438.422 Q598.471 433.167 598.471 427.982 Q598.471 422.82 600.184 417.589 Q601.897 412.357 605.392 406.894 L609.096 406.894 Z" fill="#000000" fill-rule="nonzero" fill-opacity="1"></path><path clip-path="url(#clip680)" d="M633.887 417.704 L633.887 421.732 Q632.082 420.806 630.137 420.343 Q628.193 419.88 626.11 419.88 Q622.938 419.88 621.341 420.853 Q619.767 421.825 619.767 423.769 Q619.767 425.251 620.901 426.107 Q622.036 426.94 625.461 427.704 L626.92 428.028 Q631.457 429.001 633.355 430.783 Q635.276 432.542 635.276 435.714 Q635.276 439.325 632.406 441.431 Q629.559 443.538 624.559 443.538 Q622.475 443.538 620.207 443.121 Q617.962 442.727 615.462 441.917 L615.462 437.519 Q617.823 438.746 620.114 439.371 Q622.406 439.973 624.651 439.973 Q627.661 439.973 629.281 438.954 Q630.901 437.913 630.901 436.038 Q630.901 434.302 629.721 433.376 Q628.563 432.45 624.605 431.593 L623.124 431.246 Q619.165 430.413 617.406 428.7 Q615.647 426.964 615.647 423.954 Q615.647 420.297 618.239 418.306 Q620.832 416.315 625.6 416.315 Q627.961 416.315 630.045 416.663 Q632.128 417.01 633.887 417.704 Z" fill="#000000" fill-rule="nonzero" fill-opacity="1"></path><path clip-path="url(#clip680)" d="M646.179 438.977 L646.179 452.727 L641.897 452.727 L641.897 416.94 L646.179 416.94 L646.179 420.876 Q647.522 418.561 649.559 417.45 Q651.619 416.315 654.466 416.315 Q659.188 416.315 662.128 420.065 Q665.091 423.815 665.091 429.927 Q665.091 436.038 662.128 439.788 Q659.188 443.538 654.466 443.538 Q651.619 443.538 649.559 442.426 Q647.522 441.292 646.179 438.977 M660.67 429.927 Q660.67 425.227 658.725 422.565 Q656.804 419.88 653.424 419.88 Q650.045 419.88 648.1 422.565 Q646.179 425.227 646.179 429.927 Q646.179 434.626 648.1 437.311 Q650.045 439.973 653.424 439.973 Q656.804 439.973 658.725 437.311 Q660.67 434.626 660.67 429.927 Z" fill="#000000" fill-rule="nonzero" fill-opacity="1"></path><path clip-path="url(#clip680)" d="M683.933 429.834 Q678.771 429.834 676.781 431.014 Q674.79 432.195 674.79 435.042 Q674.79 437.311 676.271 438.653 Q677.776 439.973 680.345 439.973 Q683.887 439.973 686.017 437.473 Q688.169 434.95 688.169 430.783 L688.169 429.834 L683.933 429.834 M692.429 428.075 L692.429 442.866 L688.169 442.866 L688.169 438.931 Q686.711 441.292 684.535 442.426 Q682.359 443.538 679.211 443.538 Q675.23 443.538 672.869 441.315 Q670.531 439.07 670.531 435.32 Q670.531 430.945 673.447 428.723 Q676.387 426.501 682.197 426.501 L688.169 426.501 L688.169 426.084 Q688.169 423.144 686.225 421.547 Q684.304 419.927 680.808 419.927 Q678.586 419.927 676.48 420.459 Q674.373 420.991 672.429 422.056 L672.429 418.121 Q674.767 417.218 676.966 416.778 Q679.165 416.315 681.248 416.315 Q686.873 416.315 689.651 419.232 Q692.429 422.149 692.429 428.075 Z" fill="#000000" fill-rule="nonzero" fill-opacity="1"></path><path clip-path="url(#clip680)" d="M716.225 420.922 Q715.507 420.505 714.651 420.32 Q713.817 420.112 712.799 420.112 Q709.188 420.112 707.243 422.473 Q705.322 424.811 705.322 429.209 L705.322 442.866 L701.04 442.866 L701.04 416.94 L705.322 416.94 L705.322 420.968 Q706.665 418.607 708.818 417.473 Q710.97 416.315 714.049 416.315 Q714.489 416.315 715.021 416.385 Q715.554 416.431 716.202 416.547 L716.225 420.922 Z" fill="#000000" fill-rule="nonzero" fill-opacity="1"></path><path clip-path="url(#clip680)" d="M737.22 417.704 L737.22 421.732 Q735.415 420.806 733.47 420.343 Q731.526 419.88 729.442 419.88 Q726.271 419.88 724.674 420.853 Q723.1 421.825 723.1 423.769 Q723.1 425.251 724.234 426.107 Q725.368 426.94 728.794 427.704 L730.253 428.028 Q734.79 429.001 736.688 430.783 Q738.609 432.542 738.609 435.714 Q738.609 439.325 735.739 441.431 Q732.891 443.538 727.891 443.538 Q725.808 443.538 723.54 443.121 Q721.294 442.727 718.794 441.917 L718.794 437.519 Q721.155 438.746 723.447 439.371 Q725.739 439.973 727.984 439.973 Q730.993 439.973 732.614 438.954 Q734.234 437.913 734.234 436.038 Q734.234 434.302 733.053 433.376 Q731.896 432.45 727.938 431.593 L726.456 431.246 Q722.498 430.413 720.739 428.7 Q718.979 426.964 718.979 423.954 Q718.979 420.297 721.572 418.306 Q724.165 416.315 728.933 416.315 Q731.294 416.315 733.378 416.663 Q735.461 417.01 737.22 417.704 Z" fill="#000000" fill-rule="nonzero" fill-opacity="1"></path><path clip-path="url(#clip680)" d="M767.567 428.839 L767.567 430.922 L747.984 430.922 Q748.262 435.32 750.623 437.635 Q753.007 439.926 757.243 439.926 Q759.697 439.926 761.989 439.325 Q764.303 438.723 766.572 437.519 L766.572 441.547 Q764.28 442.519 761.873 443.028 Q759.465 443.538 756.989 443.538 Q750.785 443.538 747.151 439.926 Q743.54 436.315 743.54 430.158 Q743.54 423.792 746.965 420.065 Q750.415 416.315 756.248 416.315 Q761.479 416.315 764.512 419.695 Q767.567 423.052 767.567 428.839 M763.308 427.589 Q763.262 424.093 761.34 422.01 Q759.442 419.927 756.294 419.927 Q752.729 419.927 750.577 421.94 Q748.447 423.954 748.123 427.612 L763.308 427.589 Z" fill="#000000" fill-rule="nonzero" fill-opacity="1"></path><path clip-path="url(#clip680)" d="M773.887 406.894 L777.59 406.894 Q781.062 412.357 782.775 417.589 Q784.512 422.82 784.512 427.982 Q784.512 433.167 782.775 438.422 Q781.062 443.676 777.59 449.116 L773.887 449.116 Q776.965 443.815 778.47 438.584 Q779.998 433.329 779.998 427.982 Q779.998 422.635 778.47 417.427 Q776.965 412.218 773.887 406.894 Z" fill="#000000" fill-rule="nonzero" fill-opacity="1"></path><polyline clip-path="url(#clip680)" style="stroke:#00a9ad; stroke-linecap:round; stroke-linejoin:round; stroke-width:4; stroke-opacity:1; fill:none" stroke-dasharray="16, 10" points="317.36,477.426 459.364,477.426 "></polyline>
<circle clip-path="url(#clip680)" cx="388.362" cy="477.426" r="19.7228" fill="#00a9ad" fill-rule="evenodd" fill-opacity="1" stroke="#000000" stroke-opacity="1" stroke-width="5.85143"></circle>
<path clip-path="url(#clip680)" d="M483.032 460.146 L489.999 460.146 L498.819 483.665 L507.684 460.146 L514.652 460.146 L514.652 494.706 L510.092 494.706 L510.092 464.359 L501.18 488.063 L496.481 488.063 L487.569 464.359 L487.569 494.706 L483.032 494.706 L483.032 460.146 Z" fill="#000000" fill-rule="nonzero" fill-opacity="1"></path><path clip-path="url(#clip680)" d="M519.143 460.146 L548.379 460.146 L548.379 464.081 L536.11 464.081 L536.11 494.706 L531.411 494.706 L531.411 464.081 L519.143 464.081 L519.143 460.146 Z" fill="#000000" fill-rule="nonzero" fill-opacity="1"></path><path clip-path="url(#clip680)" d="M552.892 460.146 L557.568 460.146 L557.568 474.753 L573.077 460.146 L579.096 460.146 L561.943 476.257 L580.323 494.706 L574.165 494.706 L557.568 478.063 L557.568 494.706 L552.892 494.706 L552.892 460.146 Z" fill="#000000" fill-rule="nonzero" fill-opacity="1"></path></svg>